# File produced by Open Asset Import Library (http://www.assimp.sf.net)
# (assimp v3.1.193236683)

mtllib Wall_no_foundation.mtl

# 42 vertex positions
v  0.2 2 0
v  0.2 1.8 0
v  2 1.8 0
v  2 2 0
v  0.2 0.4 0
v  0.2 0.2 0
v  2 0.2 0
v  2 0.4 0
v  0.2 0.6 0
v  2 0.6 0
v  0.2 0.8 0
v  2 0.8 0
v  0.2 1 0
v  2 1 0
v  0.2 1.2 0
v  2 1.2 0
v  0.2 1.4 0
v  2 1.4 0
v  0.2 1.6 0
v  2 1.6 0
v  2.2 1.8 0
v  2.2 1.6 0
v  2.2 1.4 0
v  2.2 1.2 0
v  2.2 1 0
v  2.2 0.8 0
v  2.2 0.6 0
v  2.2 0.4 0
v  0 0.2 0
v  0 0.4 0
v  0 0.6 0
v  0 0.8 0
v  0 1 0
v  0 1.2 0
v  0 1.4 0
v  0 1.6 0
v  0 1.8 0
v  0 2 0
v  2.2 0.2 0
v  2 0 0
v  2.2 0 0
v  0.2 0 0

# 42 UV coordinates
vt 0.476195 0.952295 0
vt 0.428585 0.904685 0
vt 0.857075 0.476195 0
vt 0.904685 0.523805 0
vt 0.095315 0.571415 0
vt 0.047705 0.523805 0
vt 0.476195 0.095315 0
vt 0.523805 0.142925 0
vt 0.142925 0.619025 0
vt 0.571415 0.190535 0
vt 0.190535 0.666635 0
vt 0.619025 0.238145 0
vt 0.238145 0.714245 0
vt 0.666635 0.285755 0
vt 0.285755 0.761855 0
vt 0.714245 0.333365 0
vt 0.333365 0.809465 0
vt 0.761855 0.380975 0
vt 0.380975 0.857075 0
vt 0.809465 0.428585 0
vt 0.904685 0.428585 0
vt 0.857075 0.380975 0
vt 0.809465 0.333365 0
vt 0.761855 0.285755 0
vt 0.714245 0.238145 0
vt 0.666635 0.190535 0
vt 0.619025 0.142925 0
vt 0.571415 0.095315 0
vt 9.5e-05 0.571415 0
vt 0.047705 0.619025 0
vt 0.095315 0.666635 0
vt 0.142925 0.714245 0
vt 0.190535 0.761855 0
vt 0.238145 0.809465 0
vt 0.285755 0.857075 0
vt 0.333365 0.904685 0
vt 0.380975 0.952295 0
vt 0.428585 0.999905 0
vt 0.523805 0.047705 0
vt 0.428585 0.047705 0
vt 0.476195 9.5e-05 0
vt 9.5e-05 0.476195 0

# 1 vertex normals
vn 0 0 1

# Mesh 'low_Plane_low_Plane' with 40 faces
g low_Plane_low_Plane
usemtl DefaultMaterial
f  1/1/1 2/2/1 3/3/1
f  3/3/1 4/4/1 1/1/1
f  5/5/1 6/6/1 7/7/1
f  7/7/1 8/8/1 5/5/1
f  9/9/1 5/5/1 8/8/1
f  8/8/1 10/10/1 9/9/1
f  11/11/1 9/9/1 10/10/1
f  10/10/1 12/12/1 11/11/1
f  13/13/1 11/11/1 12/12/1
f  12/12/1 14/14/1 13/13/1
f  15/15/1 13/13/1 14/14/1
f  14/14/1 16/16/1 15/15/1
f  17/17/1 15/15/1 16/16/1
f  16/16/1 18/18/1 17/17/1
f  19/19/1 17/17/1 18/18/1
f  18/18/1 20/20/1 19/19/1
f  2/2/1 19/19/1 20/20/1
f  20/20/1 3/3/1 2/2/1
f  21/21/1 3/3/1 20/20/1
f  20/20/1 22/22/1 21/21/1
f  23/23/1 18/18/1 16/16/1
f  16/16/1 24/24/1 23/23/1
f  25/25/1 14/14/1 12/12/1
f  12/12/1 26/26/1 25/25/1
f  27/27/1 10/10/1 8/8/1
f  8/8/1 28/28/1 27/27/1
f  29/29/1 6/6/1 5/5/1
f  5/5/1 30/30/1 29/29/1
f  31/31/1 9/9/1 11/11/1
f  11/11/1 32/32/1 31/31/1
f  33/33/1 13/13/1 15/15/1
f  15/15/1 34/34/1 33/33/1
f  35/35/1 17/17/1 19/19/1
f  19/19/1 36/36/1 35/35/1
f  37/37/1 2/2/1 1/1/1
f  1/1/1 38/38/1 37/37/1
f  39/39/1 7/7/1 40/40/1
f  40/40/1 41/41/1 39/39/1
f  40/40/1 7/7/1 6/6/1
f  6/6/1 42/42/1 40/40/1

