# File produced by Open Asset Import Library (http://www.assimp.sf.net)
# (assimp v3.1.193236683)

mtllib Solidfuel.mtl

# 42 vertex positions
v  0 -0.04 0
v  0.017013 -0.034026 0.022955
v  -0.006498 -0.034026 0.037142
v  0.028944 -0.017889 0.039053
v  0.034026 -0.021029 0
v  -0.021029 -0.034026 0
v  -0.006498 -0.034026 -0.037143
v  0.017013 -0.034026 -0.022955
v  0.038042 0 0.022955
v  -0.011056 -0.017889 0.06319
v  0.010515 -0.02103 0.060097
v  0 0 0.074285
v  -0.035777 -0.017889 0
v  -0.027528 -0.021029 0.037142
v  -0.038042 0 0.022955
v  -0.011056 -0.017889 -0.063191
v  -0.027528 -0.021029 -0.037143
v  -0.023511 0 -0.060098
v  0.028944 -0.017889 -0.039054
v  0.010515 -0.02103 -0.060098
v  0.023511 0 -0.060098
v  0.023511 0 0.060098
v  -0.023511 0 0.060098
v  -0.038042 0 -0.022955
v  0 0 -0.074285
v  0.038042 0 -0.022955
v  0.011056 0.017889 0.06319
v  0.027528 0.021029 0.037142
v  0.006498 0.034026 0.037142
v  -0.028944 0.017889 0.039053
v  -0.010515 0.02103 0.060097
v  -0.017013 0.034026 0.022955
v  -0.028944 0.017889 -0.039054
v  -0.034026 0.021029 0
v  -0.017013 0.034026 -0.022955
v  0.011056 0.017889 -0.063191
v  -0.010515 0.02103 -0.060098
v  0.006498 0.034026 -0.037143
v  0.035777 0.017889 0
v  0.027528 0.021029 -0.037143
v  0.021029 0.034026 0
v  0 0.04 0

# 87 UV coordinates
vt 0.27877 0.945309 0
vt 0.207604 0.999819 0
vt 0.16281 0.925161 0
vt 0.154575 0.811454 0
vt 0.206337 0.749634 0
vt 0.278276 0.816729 0
vt 0.27877 0.87782 0
vt 0.39473 0.925161 0
vt 0.349935 0.999819 0
vt 0.200887 0.877457 0
vt 0.065027 0.915874 0
vt 0.082201 0.983533 0
vt 0.000181 0.95432 0
vt 0.279811 0.647162 0
vt 0.162747 0.671868 0
vt 0.203814 0.596241 0
vt 0.487478 0.706747 0
vt 0.396875 0.671868 0
vt 0.489149 0.63777 0
vt 0.401977 0.811454 0
vt 0.474647 0.761443 0
vt 0.486084 0.838069 0
vt 0.153231 0.409073 0
vt 0.211514 0.466075 0
vt 0.085137 0.466685 0
vt 0.072144 0.706747 0
vt 0.000181 0.687418 0
vt 0.070473 0.63777 0
vt 0.278276 0.403089 0
vt 0.206337 0.34658 0
vt 0.350215 0.34658 0
vt 0.559441 0.687418 0
vt 0.423179 0.442809 0
vt 0.475 0.515407 0
vt 0.35266 0.483715 0
vt 0.070237 0.055235 0
vt 0.152886 0.000181 0
vt 0.163963 0.075899 0
vt 0.136382 0.195655 0
vt 0.080495 0.125885 0
vt 0.204679 0.150807 0
vt 0.401977 0.28476 0
vt 0.278276 0.279485 0
vt 0.355664 0.218758 0
vt 0.484054 0.055235 0
vt 0.473796 0.125885 0
vt 0.390328 0.075899 0
vt 0.275331 0.528951 0
vt 0.387828 0.563303 0
vt 0.266967 0.595878 0
vt 0.277146 0.026667 0
vt 0.277146 0.095857 0
vt 0.401405 0.000181 0
vt 0.349612 0.150807 0
vt 0.417909 0.195655 0
vt 0.277146 0.218395 0
vt 0.154575 0.284759 0
vt 0.200887 0.218758 0
vt 0.15784 0.534561 0
vt 0.483645 0.584631 0
vt 0.55411 0.08743 0
vt 0.55637 0.307801 0
vt 0.474648 0.334771 0
vt 0.486082 0.258145 0
vt 0.081904 0.334771 0
vt 0.070469 0.258145 0
vt 0.000181 0.307801 0
vt 0.000181 0.08743 0
vt 0.059721 0.531653 0
vt 0.552715 0.554541 0
vt 0.55637 0.788413 0
vt 0.475338 0.983533 0
vt 0.492512 0.915874 0
vt 0.557358 0.95432 0
vt 0.409762 0.40871 0
vt 0.355808 0.596241 0
vt 0.14679 0.408711 0
vt 0.000181 0.48549 0
vt 0.000181 0.788413 0
vt 0.081905 0.761443 0
vt 0.070468 0.838069 0
vt 0.290313 0.409073 0
vt 0.355665 0.877457 0
vt 0.350214 0.749634 0
vt 0.400201 0.749271 0
vt 0.279811 0.715673 0
vt 0.159421 0.749271 0

# 42 vertex normals
vn -5.26385e-09 -1 0
vn 0.440525 -0.881044 0.172334
vn -0.179141 -0.937966 0.296863
vn 0.807137 -0.498825 0.31576
vn 0.850653 -0.525727 0
vn -0.525724 -0.850655 0
vn -0.179138 -0.937968 -0.296858
vn 0.440525 -0.881045 -0.172331
vn 0.985037 -7.66342e-06 0.172342
vn -0.396386 -0.641376 0.656898
vn 0.359296 -0.718589 0.595429
vn -3.84782e-09 1.53913e-08 1
vn -0.89443 -0.447209 2.63192e-09
vn -0.758829 -0.579696 0.296869
vn -0.985037 7.64411e-06 0.172342
vn -0.396392 -0.641362 -0.656908
vn -0.758834 -0.579692 -0.296866
vn -0.803409 1.08013e-05 -0.595427
vn 0.807139 -0.498822 -0.315757
vn 0.359301 -0.718585 -0.595432
vn 0.803409 -1.08013e-05 -0.595427
vn 0.803409 -1.1379e-05 0.595427
vn -0.803409 1.13733e-05 0.595427
vn -0.985037 8.01745e-06 -0.172341
vn -7.69564e-09 -1.53913e-08 -1
vn 0.985037 -8.01531e-06 -0.172341
vn 0.396386 0.641375 0.656898
vn 0.758829 0.579696 0.296869
vn 0.179141 0.937966 0.296863
vn -0.807137 0.498825 0.31576
vn -0.359296 0.718589 0.595429
vn -0.440525 0.881044 0.172334
vn -0.807139 0.498822 -0.315757
vn -0.850653 0.525727 0
vn -0.440525 0.881045 -0.172331
vn 0.396392 0.641362 -0.656908
vn -0.359301 0.718585 -0.595431
vn 0.179138 0.937968 -0.296858
vn 0.89443 0.447209 -2.63192e-09
vn 0.758834 0.579692 -0.296866
vn 0.525724 0.850655 0
vn 0 1 0

# Mesh 'Icosphere_Icosphere' with 80 faces
g Icosphere_Icosphere
usemtl DefaultMaterial
f  1/1/1 2/2/2 3/3/3
f  4/4/4 2/5/2 5/6/5
f  1/1/1 3/3/3 6/7/6
f  1/1/1 6/7/6 7/8/7
f  1/1/1 7/8/7 8/9/8
f  4/4/4 5/6/5 9/10/9
f  10/11/10 11/12/11 12/13/12
f  13/14/13 14/15/14 15/16/15
f  16/17/16 17/18/17 18/19/18
f  19/20/19 20/21/20 21/22/21
f  4/23/4 9/24/9 22/25/22
f  10/26/10 12/27/12 23/28/23
f  13/29/13 15/30/15 24/31/24
f  16/17/16 18/19/18 25/32/25
f  19/33/19 21/34/21 26/35/26
f  27/36/27 28/37/28 29/38/29
f  30/39/30 31/40/31 32/41/32
f  33/42/33 34/43/34 35/44/35
f  36/45/36 37/46/37 38/47/38
f  39/48/39 40/49/40 41/50/41
f  41/51/41 38/47/38 42/52/42
f  41/51/41 40/53/40 38/47/38
f  40/53/40 36/45/36 38/47/38
f  38/47/38 35/54/35 42/52/42
f  38/47/38 37/46/37 35/54/35
f  37/46/37 33/55/33 35/54/35
f  35/54/35 32/41/32 42/52/42
f  35/54/35 34/56/34 32/41/32
f  34/43/34 30/57/30 32/58/32
f  32/41/32 29/38/29 42/52/42
f  32/41/32 31/40/31 29/38/29
f  31/40/31 27/36/27 29/38/29
f  29/38/29 41/51/41 42/52/42
f  29/38/29 28/37/28 41/51/41
f  28/59/28 39/48/39 41/50/41
f  26/35/26 40/49/40 39/48/39
f  26/35/26 21/34/21 40/49/40
f  21/34/21 36/60/36 40/49/40
f  25/61/25 37/46/37 36/45/36
f  25/62/25 18/63/18 37/64/37
f  18/63/18 33/42/33 37/64/37
f  24/31/24 34/43/34 33/42/33
f  24/31/24 15/30/15 34/43/34
f  15/30/15 30/57/30 34/43/34
f  23/65/23 31/66/31 30/57/30
f  23/65/23 12/67/12 31/66/31
f  12/68/12 27/36/27 31/40/31
f  22/25/22 28/59/28 27/69/27
f  22/25/22 9/24/9 28/59/28
f  9/24/9 39/48/39 28/59/28
f  21/34/21 25/70/25 36/60/36
f  21/22/21 20/21/20 25/71/25
f  20/72/20 16/73/16 25/74/25
f  18/63/18 24/31/24 33/42/33
f  18/63/18 17/75/17 24/31/24
f  17/18/17 13/14/13 24/76/24
f  15/30/15 23/65/23 30/57/30
f  15/30/15 14/77/14 23/65/23
f  14/15/14 10/26/10 23/28/23
f  12/78/12 22/25/22 27/69/27
f  12/79/12 11/80/11 22/81/22
f  11/80/11 4/4/4 22/81/22
f  9/24/9 26/35/26 39/48/39
f  9/24/9 5/82/5 26/35/26
f  5/6/5 19/20/19 26/83/26
f  8/84/8 20/21/20 19/20/19
f  8/9/8 7/8/7 20/72/20
f  7/8/7 16/73/16 20/72/20
f  7/85/7 17/18/17 16/17/16
f  7/85/7 6/86/6 17/18/17
f  6/86/6 13/14/13 17/18/17
f  6/86/6 14/15/14 13/14/13
f  6/86/6 3/87/3 14/15/14
f  3/87/3 10/26/10 14/15/14
f  5/6/5 8/84/8 19/20/19
f  5/6/5 2/5/2 8/84/8
f  2/2/2 1/1/1 8/9/8
f  3/3/3 11/12/11 10/11/10
f  3/3/3 2/2/2 11/12/11
f  2/5/2 4/4/4 11/80/11

