# File produced by Open Asset Import Library (http://www.assimp.sf.net)
# (assimp v3.1.77322876)

mtllib Staircase_Straight.mtl

# 94 vertex positions
v  0 2 -2.4
v  0 2 -2
v  2 2 -2
v  2 2 -2.4
v  2 2 -1.55
v  2 2 -1.6
v  0 2 -1.6
v  0 2 -1.55
v  0 1.9 -1.6
v  0 1.9 -1.55
v  2 0.3 0.05
v  2 0.3 0
v  2 0.4 0
v  2 0.4 0.05
v  2 1.6 -1.15
v  2 1.6 -1.2
v  0 1.6 -1.2
v  0 1.6 -1.15
v  0 1.6 -1.6
v  2 1.6 -1.6
v  0 1.2 -1.2
v  0 1.2 -0.8
v  2 1.2 -0.8
v  2 1.2 -1.2
v  0 0.8 -0.8
v  0 0.8 -0.4
v  2 0.8 -0.4
v  2 0.8 -0.8
v  0 0.4 -0.4
v  0 0.4 0
v  2 0.4 -0.4
v  2 0 0
v  0 0.3 0
v  0 0 0
v  2 1.6 -2
v  2 1.9 -2
v  2 1.9 -1.6
v  2 1.6 -2.4
v  2 1.9 -2.4
v  2 1.5 -1.6
v  2 1.5 -2
v  2 1.1 -1.2
v  2 1.1 -1.6
v  2 1.2 -1.6
v  2 0.7 -0.8
v  2 0.7 -1.2
v  2 0.8 -1.2
v  2 0.3 -0.4
v  2 0.3 -0.8
v  2 0.4 -0.8
v  2 0 -0.4
v  2 0.7 -0.4
v  2 1.1 -0.8
v  2 1.5 -1.2
v  0 0.3 -0.4
v  0 0 -0.4
v  0 0.3 -0.8
v  0 0.4 -0.8
v  0 0.7 -0.4
v  0 0.7 -0.8
v  0 0.7 -1.2
v  0 0.8 -1.2
v  0 1.1 -0.8
v  0 1.1 -1.2
v  0 1.1 -1.6
v  0 1.2 -1.6
v  0 1.5 -1.2
v  0 1.5 -1.6
v  0 1.5 -2
v  0 1.6 -2
v  0 1.9 -2
v  0 1.9 -2.4
v  0 0 -0.8
v  2 0 -0.8
v  0 0.4 -1.2
v  2 0.4 -1.2
v  0 0.8 -1.6
v  2 0.8 -1.6
v  0 1.2 -2
v  2 1.2 -2
v  0 1.6 -2.4
v  0 0.3 0.05
v  0 0.8 -0.35
v  0 0.7 -0.35
v  2 0.7 -0.35
v  2 0.8 -0.35
v  0 1.2 -0.75
v  0 1.1 -0.75
v  2 1.1 -0.75
v  2 1.2 -0.75
v  0 1.5 -1.15
v  2 1.5 -1.15
v  2 1.9 -1.55
v  0 0.4 0.05

# 190 UV coordinates
vt 0.617996 0.65028 0
vt 0.617996 0.609604 0
vt 0.821377 0.609604 0
vt 0.821377 0.65028 0
vt 0.821378 0.563844 0
vt 0.821377 0.568928 0
vt 0.617996 0.568927 0
vt 0.617996 0.563843 0
vt 0.607827 0.568927 0
vt 0.607827 0.563843 0
vt 0.9828 0.046765 0
vt 0.9828 0.051849 0
vt 0.972631 0.051849 0
vt 0.972631 0.046765 0
vt 0.930046 0.18558 0
vt 0.930046 0.190665 0
vt 0.726664 0.190664 0
vt 0.726664 0.18558 0
vt 0.726664 0.231341 0
vt 0.930046 0.231341 0
vt 0.695414 0.349433 0
vt 0.695414 0.308757 0
vt 0.898796 0.308757 0
vt 0.898796 0.349433 0
vt 0.66668 0.476344 0
vt 0.66668 0.435667 0
vt 0.870062 0.435668 0
vt 0.870062 0.476344 0
vt 0.769249 0.092526 0
vt 0.769248 0.051849 0
vt 0.972631 0.092525 0
vt 0.479153 0.669624 0
vt 0.479153 0.700131 0
vt 0.275771 0.700131 0
vt 0.275771 0.669624 0
vt 0.243787 0.081062 0
vt 0.274295 0.081062 0
vt 0.274295 0.121739 0
vt 0.243787 0.121739 0
vt 0.243787 0.040386 0
vt 0.274295 0.040386 0
vt 0.940215 0.231341 0
vt 0.940215 0.272017 0
vt 0.930046 0.272017 0
vt 0.908965 0.349433 0
vt 0.908965 0.390109 0
vt 0.898796 0.390109 0
vt 0.880231 0.476344 0
vt 0.880231 0.51702 0
vt 0.870062 0.51702 0
vt 0.9828 0.092525 0
vt 0.9828 0.133201 0
vt 0.972631 0.133201 0
vt 0.479153 0.628947 0
vt 0.50966 0.628947 0
vt 0.50966 0.669624 0
vt 0.880231 0.435668 0
vt 0.908965 0.308757 0
vt 0.940215 0.190665 0
vt 0.245264 0.669624 0
vt 0.245264 0.628947 0
vt 0.275771 0.628947 0
vt 0.75908 0.133202 0
vt 0.759079 0.092526 0
vt 0.769249 0.133202 0
vt 0.201577 0.532186 0
vt 0.201577 0.49151 0
vt 0.232084 0.49151 0
vt 0.232084 0.532186 0
vt 0.656511 0.51702 0
vt 0.656511 0.476344 0
vt 0.66668 0.51702 0
vt 0.144305 0.407398 0
vt 0.144305 0.366721 0
vt 0.174812 0.366721 0
vt 0.174812 0.407398 0
vt 0.685244 0.39011 0
vt 0.685244 0.349433 0
vt 0.695413 0.39011 0
vt 0.076808 0.268582 0
vt 0.076808 0.227906 0
vt 0.107315 0.227906 0
vt 0.107315 0.268582 0
vt 0.716494 0.272017 0
vt 0.716494 0.231341 0
vt 0.726663 0.272017 0
vt 0.009899 0.121739 0
vt 0.009899 0.081062 0
vt 0.040406 0.081062 0
vt 0.040406 0.121739 0
vt 0.607826 0.65028 0
vt 0.607826 0.609604 0
vt 0.275771 0.588271 0
vt 0.479153 0.588271 0
vt 0.275771 0.557764 0
vt 0.479153 0.557764 0
vt 0.232084 0.450833 0
vt 0.435465 0.450834 0
vt 0.435465 0.49151 0
vt 0.232084 0.420326 0
vt 0.435465 0.420326 0
vt 0.174812 0.326045 0
vt 0.378194 0.326045 0
vt 0.378194 0.366721 0
vt 0.174812 0.295538 0
vt 0.378194 0.295538 0
vt 0.107315 0.18723 0
vt 0.310697 0.18723 0
vt 0.310697 0.227906 0
vt 0.107315 0.156723 0
vt 0.310697 0.156723 0
vt 0.040406 0.040386 0
vt 0.040406 0.009879 0
vt 0.243787 0.009879 0
vt 0.972632 0.336581 0
vt 0.982801 0.336581 0
vt 0.245264 0.588271 0
vt 0.759079 0.051849 0
vt 0.50966 0.588271 0
vt 0.769248 0.036595 0
vt 0.769248 0.031511 0
vt 0.972631 0.031511 0
vt 0.972631 0.036596 0
vt 0.870063 0.720399 0
vt 0.880231 0.720399 0
vt 0.201577 0.450833 0
vt 0.656511 0.435667 0
vt 0.465972 0.532186 0
vt 0.435465 0.532186 0
vt 0.465972 0.49151 0
vt 0.465972 0.450834 0
vt 0.232084 0.735568 0
vt 0.201576 0.735568 0
vt 0.898796 0.593489 0
vt 0.908965 0.593489 0
vt 0.144305 0.326045 0
vt 0.685244 0.308757 0
vt 0.408701 0.407398 0
vt 0.378194 0.407398 0
vt 0.408701 0.366721 0
vt 0.408701 0.326045 0
vt 0.174812 0.610779 0
vt 0.144305 0.610779 0
vt 0.930046 0.475397 0
vt 0.940215 0.475397 0
vt 0.076808 0.18723 0
vt 0.716494 0.190664 0
vt 0.341204 0.268582 0
vt 0.310697 0.268582 0
vt 0.341204 0.227906 0
vt 0.341204 0.18723 0
vt 0.107315 0.471964 0
vt 0.076808 0.471964 0
vt 0.617996 0.660449 0
vt 0.821377 0.660449 0
vt 0.009899 0.040386 0
vt 0.831546 0.65028 0
vt 0.831546 0.609604 0
vt 0.831546 0.568928 0
vt 0.040406 0.32512 0
vt 0.009899 0.32512 0
vt 0.66668 0.430583 0
vt 0.66668 0.420413 0
vt 0.870063 0.420414 0
vt 0.870062 0.430583 0
vt 0.695414 0.303672 0
vt 0.695414 0.293503 0
vt 0.898796 0.293504 0
vt 0.898796 0.303673 0
vt 0.726664 0.175411 0
vt 0.930046 0.175411 0
vt 0.617996 0.553674 0
vt 0.821378 0.553675 0
vt 0.769248 0.046765 0
vt 0.695414 0.288419 0
vt 0.898796 0.288419 0
vt 0.880231 0.430583 0
vt 0.656511 0.430583 0
vt 0.908965 0.303673 0
vt 0.617996 0.54859 0
vt 0.821378 0.54859 0
vt 0.716494 0.18558 0
vt 0.940215 0.18558 0
vt 0.66668 0.415329 0
vt 0.870063 0.41533 0
vt 0.831546 0.563844 0
vt 0.759079 0.046765 0
vt 0.726664 0.170326 0
vt 0.930046 0.170327 0
vt 0.685244 0.303672 0

# 82 vertex normals
vn -0.0484502 0.969003 -0.242251
vn -0.0499376 0.998752 0
vn 0.0499376 0.998752 0
vn 0.0484502 0.969003 -0.242251
vn 0.0223551 0.447102 0.894203
vn 0.0499376 0.998752 0
vn -0.0499376 0.998752 0
vn -0.0223551 0.447102 0.894203
vn -0.261798 -0.158666 0.951991
vn -0.0223551 -0.447102 0.894203
vn 0.0223551 -0.447102 0.894204
vn 0.261798 -0.158665 0.951991
vn 0.0499376 0.998752 0
vn 0.0223551 0.447102 0.894204
vn 0.0223551 0.447102 0.894204
vn 0.0499376 0.998752 0
vn -0.0499376 0.998752 0
vn -0.0223551 0.447102 0.894204
vn -0.196116 0.784465 0.588348
vn 0.196116 0.784465 0.588348
vn -0.196116 0.784465 0.588348
vn -0.0499376 0.998752 0
vn 0.0499376 0.998752 0
vn 0.196116 0.784465 0.588348
vn -0.196116 0.784465 0.588348
vn 0.196116 0.784465 0.588348
vn -0.196116 0.784465 0.588348
vn -0.0499376 0.998752 0
vn 0.196116 0.784465 0.588348
vn 0.119145 -0.794301 0.595726
vn -0.261798 -0.158665 0.951991
vn -0.119145 -0.794301 0.595726
vn 0.321521 -0.91863 -0.229658
vn 1 0 0
vn 0.261798 -0.158666 0.951991
vn 0.119145 -0.794302 -0.595726
vn 0.196116 0 -0.980581
vn 0.196116 0 -0.980581
vn 0.196116 0 -0.980581
vn 0.321521 -0.91863 -0.229658
vn 0.196116 0 -0.980581
vn 0.321521 -0.91863 -0.229658
vn 0.196116 0 -0.980581
vn 0.321521 -0.91863 -0.229657
vn 0.14834 -0.988936 0
vn 0.261798 -0.158665 0.951991
vn 0.261798 -0.158665 0.951991
vn 0.261798 -0.158665 0.951991
vn -1 0 0
vn -0.14834 -0.988936 0
vn -0.196116 0 -0.980581
vn -0.321521 -0.91863 -0.229657
vn -0.261798 -0.158665 0.951991
vn -0.196116 0 -0.980581
vn -0.321521 -0.91863 -0.229658
vn -0.261798 -0.158665 0.951991
vn -0.196116 0 -0.980581
vn -0.321521 -0.91863 -0.229658
vn -0.261798 -0.158665 0.951991
vn -0.196116 0 -0.980581
vn -0.321521 -0.91863 -0.229658
vn -0.196116 0 -0.980581
vn -0.119145 -0.794302 -0.595726
vn 0.119145 -0.794302 -0.595726
vn -0.119145 -0.794301 -0.595726
vn 0.119145 -0.794301 -0.595726
vn -0.119145 -0.794302 -0.595726
vn 0.119145 -0.794302 -0.595726
vn -0.119145 -0.794302 -0.595726
vn -0.0223551 -0.447102 0.894204
vn -0.0223551 0.447102 0.894204
vn -0.0223551 -0.447102 0.894204
vn 0.0223551 -0.447102 0.894204
vn 0.0223551 0.447102 0.894204
vn -0.0223551 0.447102 0.894204
vn -0.0223551 -0.447102 0.894204
vn 0.0223551 -0.447102 0.894204
vn 0.0223551 0.447102 0.894204
vn -0.0223551 -0.447102 0.894204
vn 0.0223551 -0.447102 0.894204
vn 0.0223551 -0.447102 0.894203
vn -0.0223551 0.447102 0.894204

# Mesh 'low_Plane_low_Plane' with 184 faces
g low_Plane_low_Plane
usemtl DefaultMaterial
f  1/1/1 2/2/2 3/3/3
f  3/3/3 4/4/4 1/1/1
f  5/5/5 6/6/6 7/7/7
f  7/7/7 8/8/8 5/5/5
f  8/8/8 7/7/7 9/9/9
f  9/9/9 10/10/10 8/8/8
f  11/11/11 12/12/12 13/13/13
f  13/13/13 14/14/14 11/11/11
f  15/15/15 16/16/16 17/17/17
f  17/17/17 18/18/18 15/15/15
f  19/19/19 17/17/17 16/16/16
f  16/16/16 20/20/20 19/19/19
f  21/21/21 22/22/22 23/23/23
f  23/23/23 24/24/24 21/21/21
f  25/25/25 26/26/17 27/27/16
f  27/27/16 28/28/26 25/25/25
f  29/29/27 30/30/28 13/13/13
f  13/13/13 31/31/29 29/29/27
f  32/32/30 12/33/12 33/34/31
f  33/34/31 34/35/32 32/32/30
f  35/36/33 36/37/34 37/38/35
f  37/38/35 20/39/20 35/36/33
f  38/40/36 39/41/37 36/37/34
f  36/37/34 35/36/33 38/40/36
f  2/2/2 7/7/7 6/6/6
f  6/6/6 3/3/3 2/2/2
f  20/20/20 40/42/34 41/43/38
f  41/43/38 35/44/33 20/20/20
f  24/24/24 42/45/34 43/46/39
f  43/46/39 44/47/40 24/24/24
f  28/28/26 45/48/34 46/49/41
f  46/49/41 47/50/42 28/28/26
f  31/31/29 48/51/34 49/52/43
f  49/52/43 50/53/44 31/31/29
f  51/54/45 48/55/34 12/56/12
f  12/56/12 32/32/30 51/54/45
f  27/27/16 52/57/46 45/48/34
f  45/48/34 28/28/26 27/27/16
f  23/23/23 53/58/47 42/45/34
f  42/45/34 24/24/24 23/23/23
f  16/16/16 54/59/48 40/42/34
f  40/42/34 20/20/20 16/16/16
f  33/60/31 55/61/49 56/62/50
f  56/62/50 34/35/32 33/60/31
f  57/63/51 55/64/49 29/29/27
f  29/29/27 58/65/52 57/63/51
f  59/66/53 60/67/49 58/68/52
f  58/68/52 29/69/27 59/66/53
f  61/70/54 60/71/49 25/25/25
f  25/25/25 62/72/55 61/70/54
f  63/73/56 64/74/49 62/75/55
f  62/75/55 25/76/25 63/73/56
f  65/77/57 64/78/49 21/21/21
f  21/21/21 66/79/58 65/77/57
f  67/80/59 68/81/49 66/82/58
f  66/82/58 21/83/21 67/80/59
f  69/84/60 68/85/49 19/19/19
f  19/19/19 70/86/61 69/84/60
f  9/87/9 71/88/49 70/89/61
f  70/89/61 19/90/19 9/87/9
f  72/91/62 71/92/49 2/2/2
f  2/2/2 1/1/1 72/91/62
f  32/32/30 34/35/32 56/62/50
f  56/62/50 51/54/45 32/32/30
f  73/93/63 74/94/64 51/54/45
f  51/54/45 56/62/50 73/93/63
f  57/95/51 49/96/43 74/94/64
f  74/94/64 73/93/63 57/95/51
f  75/97/63 76/98/64 50/99/44
f  50/99/44 58/68/52 75/97/63
f  61/100/54 46/101/41 76/98/64
f  76/98/64 75/97/63 61/100/54
f  77/102/65 78/103/66 47/104/42
f  47/104/42 62/75/55 77/102/65
f  65/105/57 43/106/39 78/103/66
f  78/103/66 77/102/65 65/105/57
f  79/107/67 80/108/68 44/109/40
f  44/109/40 66/82/58 79/107/67
f  69/110/60 41/111/38 80/108/68
f  80/108/68 79/107/67 69/110/60
f  81/112/69 38/40/36 35/36/33
f  35/36/33 70/89/61 81/112/69
f  81/112/69 72/113/62 39/114/37
f  39/114/37 38/40/36 81/112/69
f  58/115/52 50/53/44 49/52/43
f  49/52/43 57/116/51 58/115/52
f  73/93/63 56/62/50 55/61/49
f  55/61/49 57/117/51 73/93/63
f  30/30/28 29/29/27 55/64/49
f  55/64/49 33/118/31 30/30/28
f  48/51/34 31/31/29 13/13/13
f  13/13/13 12/12/12 48/51/34
f  48/55/34 51/54/45 74/94/64
f  74/94/64 49/119/43 48/55/34
f  82/120/70 33/121/31 12/122/12
f  12/122/12 11/123/11 82/120/70
f  62/124/55 47/50/42 46/49/41
f  46/49/41 61/125/54 62/124/55
f  75/97/63 58/68/52 60/67/49
f  60/67/49 61/126/54 75/97/63
f  26/26/17 25/25/25 60/71/49
f  60/71/49 59/127/53 26/26/17
f  52/128/46 31/129/29 50/99/44
f  50/99/44 45/130/34 52/128/46
f  45/130/34 50/99/44 76/98/64
f  76/98/64 46/131/41 45/130/34
f  59/66/53 29/69/27 31/132/29
f  31/132/29 52/133/46 59/66/53
f  66/134/58 44/47/40 43/46/39
f  43/46/39 65/135/57 66/134/58
f  77/102/65 62/75/55 64/74/49
f  64/74/49 65/136/57 77/102/65
f  22/22/22 21/21/21 64/78/49
f  64/78/49 63/137/56 22/22/22
f  53/138/47 28/139/26 47/104/42
f  47/104/42 42/140/34 53/138/47
f  42/140/34 47/104/42 78/103/66
f  78/103/66 43/141/39 42/140/34
f  63/73/56 25/76/25 28/142/26
f  28/142/26 53/143/47 63/73/56
f  70/144/61 35/44/33 41/43/38
f  41/43/38 69/145/60 70/144/61
f  79/107/67 66/82/58 68/81/49
f  68/81/49 69/146/60 79/107/67
f  17/17/17 19/19/19 68/85/49
f  68/85/49 67/147/59 17/17/17
f  54/148/48 24/149/24 44/109/40
f  44/109/40 40/150/34 54/148/48
f  40/150/34 44/109/40 80/108/68
f  80/108/68 41/151/38 40/150/34
f  67/80/59 21/83/21 24/152/24
f  24/152/24 54/153/48 67/80/59
f  72/154/62 1/1/1 4/4/4
f  4/4/4 39/155/37 72/154/62
f  81/112/69 70/89/61 71/88/49
f  71/88/49 72/156/62 81/112/69
f  7/7/7 2/2/2 71/92/49
f  71/92/49 9/9/9 7/7/7
f  39/157/37 4/4/4 3/3/3
f  3/3/3 36/158/34 39/157/37
f  36/158/34 3/3/3 6/6/6
f  6/6/6 37/159/35 36/158/34
f  9/87/9 19/90/19 20/160/20
f  20/160/20 37/161/35 9/87/9
f  83/162/71 84/163/72 85/164/73
f  85/164/73 86/165/74 83/162/71
f  87/166/75 88/167/76 89/168/77
f  89/168/77 90/169/78 87/166/75
f  18/18/18 91/170/79 92/171/80
f  92/171/80 15/15/15 18/18/18
f  8/8/8 10/172/10 93/173/81
f  93/173/81 5/5/5 8/8/8
f  11/123/11 14/14/14 94/174/82
f  94/174/82 82/120/70 11/123/11
f  88/167/76 63/175/56 53/176/47
f  53/176/47 89/168/77 88/167/76
f  85/177/73 52/57/46 27/27/16
f  27/27/16 86/165/74 85/177/73
f  83/162/71 26/26/17 59/127/53
f  59/127/53 84/178/72 83/162/71
f  14/14/14 13/13/13 30/30/28
f  30/30/28 94/174/82 14/14/14
f  89/179/77 53/58/47 23/23/23
f  23/23/23 90/169/78 89/179/77
f  10/172/10 9/180/9 37/181/35
f  37/181/35 93/173/81 10/172/10
f  18/18/18 17/17/17 67/147/59
f  67/147/59 91/182/79 18/18/18
f  92/183/80 54/59/48 16/16/16
f  16/16/16 15/15/15 92/183/80
f  84/163/72 59/184/53 52/185/46
f  52/185/46 85/164/73 84/163/72
f  93/186/81 37/159/35 6/6/6
f  6/6/6 5/5/5 93/186/81
f  94/174/82 30/30/28 33/118/31
f  33/118/31 82/187/70 94/174/82
f  86/165/74 27/27/16 26/26/17
f  26/26/17 83/162/71 86/165/74
f  91/170/79 67/188/59 54/189/48
f  54/189/48 92/171/80 91/170/79
f  87/166/75 22/22/22 63/137/56
f  63/137/56 88/190/76 87/166/75
f  90/169/78 23/23/23 22/22/22
f  22/22/22 87/166/75 90/169/78

