# File produced by Open Asset Import Library (http://www.assimp.sf.net)
# (assimp v3.1.193236683)

mtllib Exitsign.mtl

# 56 vertex positions
v  -0.1 0 -2
v  -0.1 0 0
v  -0.1 1 0
v  -0.1 1 -2
v  0.1 0 -2
v  0.1 1 -2
v  0.1 0 0
v  0.1 1 0
v  0.087279 0.172199 -1.85976
v  0.087279 0.129778 -1.80408
v  0.115279 0.129778 -1.80408
v  0.115279 0.172199 -1.85976
v  0.122651 0.929689 -1.83738
v  0.122651 0.876066 -1.79238
v  0.122651 0.810288 -1.81633
v  0.122651 0.917534 -1.90632
v  0.086788 0.831145 -0.173561
v  0.086788 0.900081 -0.185716
v  0.114788 0.900081 -0.185716
v  0.114788 0.831145 -0.173561
v  0.115279 0.033334 -1.87756
v  0.115279 0.075755 -1.93324
v  0.115279 0.145188 -1.92434
v  0.115279 0.060346 -1.81298
v  0.094651 0.929689 -1.83738
v  0.094651 0.876066 -1.79238
v  0.086788 0.807203 -0.107782
v  0.114788 0.807203 -0.107782
v  0.122651 0.798132 -1.88526
v  0.122651 0.851755 -1.93026
v  0.094651 0.810288 -1.81633
v  0.086788 0.852198 -0.054159
v  0.114788 0.852198 -0.054159
v  0.094651 0.851755 -1.93026
v  0.094651 0.917534 -1.90632
v  0.094651 0.798132 -1.88526
v  0.086788 0.921135 -0.066314
v  0.114788 0.921135 -0.066314
v  0.114788 0.945076 -0.132093
v  0.086788 0.945076 -0.132093
v  0.087279 0.060346 -1.81298
v  0.087279 0.075755 -1.93324
v  0.087279 0.145188 -1.92434
v  0.087279 0.033334 -1.87756
v  0.096617 0.151111 -0.075071
v  0.096617 0.086533 -0.048059
v  0.124616 0.086533 -0.048059
v  0.124616 0.151111 -0.075071
v  0.124616 0.039748 -0.159913
v  0.124616 0.104326 -0.186924
v  0.124616 0.160008 -0.144503
v  0.124616 0.030851 -0.09048
v  0.096617 0.030851 -0.09048
v  0.096617 0.104326 -0.186924
v  0.096617 0.160008 -0.144503
v  0.096617 0.039748 -0.159913

# 86 UV coordinates
vt 0.930897 0.077686 0
vt 0.930897 0.853332 0
vt 0.543074 0.853332 0
vt 0.543074 0.077686 0
vt 0.077687 0.077686 0
vt 0.077687 0.000121 0
vt 0.465509 0.000122 0
vt 0.465509 0.077686 0
vt 0.077686 0.853331 0
vt 0.465509 0.853332 0
vt 0.077686 0.930896 0
vt 0.465509 0.930896 0
vt 0.000121 0.853331 0
vt 0.000122 0.077686 0
vt 0.826404 0.949527 0
vt 0.81283 0.926016 0
vt 0.822234 0.920587 0
vt 0.835808 0.944097 0
vt 0.634427 0.94605 0
vt 0.620854 0.92254 0
vt 0.634428 0.899029 0
vt 0.661575 0.94605 0
vt 0.777529 0.895553 0
vt 0.791103 0.919063 0
vt 0.781699 0.924493 0
vt 0.768125 0.900982 0
vt 0.862956 0.897076 0
vt 0.876529 0.920587 0
vt 0.862956 0.944097 0
vt 0.835808 0.897076 0
vt 0.625023 0.95148 0
vt 0.611449 0.927969 0
vt 0.740977 0.890123 0
vt 0.768125 0.890123 0
vt 0.740977 0.900982 0
vt 0.661575 0.899029 0
vt 0.675149 0.92254 0
vt 0.611449 0.91711 0
vt 0.625023 0.8936 0
vt 0.717999 0.919063 0
vt 0.731573 0.895553 0
vt 0.727403 0.924493 0
vt 0.684553 0.927969 0
vt 0.670979 0.95148 0
vt 0.634427 0.88817 0
vt 0.661575 0.88817 0
vt 0.731573 0.953433 0
vt 0.717999 0.929922 0
vt 0.740977 0.948003 0
vt 0.768125 0.948003 0
vt 0.670979 0.8936 0
vt 0.684553 0.91711 0
vt 0.768125 0.958862 0
vt 0.740977 0.958862 0
vt 0.661575 0.956909 0
vt 0.634427 0.956909 0
vt 0.791103 0.929922 0
vt 0.777529 0.953433 0
vt 0.81283 0.915157 0
vt 0.826404 0.891647 0
vt 0.885934 0.926016 0
vt 0.87236 0.949527 0
vt 0.835808 0.886217 0
vt 0.862956 0.886217 0
vt 0.87236 0.891647 0
vt 0.885934 0.915157 0
vt 0.862956 0.954956 0
vt 0.835808 0.954956 0
vt 0.551877 0.961897 0
vt 0.528366 0.948323 0
vt 0.533795 0.938919 0
vt 0.557306 0.952493 0
vt 0.557306 0.898197 0
vt 0.580817 0.911771 0
vt 0.580817 0.938919 0
vt 0.533795 0.911771 0
vt 0.522936 0.938919 0
vt 0.522936 0.911771 0
vt 0.591676 0.911771 0
vt 0.591676 0.938919 0
vt 0.528366 0.902367 0
vt 0.551876 0.888793 0
vt 0.562735 0.888793 0
vt 0.586246 0.902367 0
vt 0.586246 0.948323 0
vt 0.562736 0.961897 0

# 56 vertex normals
vn -0.9759 -0.19518 -0.09759
vn -0.9759 -0.19518 0.09759
vn -0.9759 0.19518 0.09759
vn -0.9759 0.19518 -0.09759
vn 0.9759 -0.19518 -0.09759
vn 0.9759 0.19518 -0.09759
vn 0.9759 -0.19518 0.09759
vn 0.9759 0.19518 0.09759
vn 0 0.99189 0.1271
vn 0 0.385877 0.92255
vn 0.780871 0.241055 0.57631
vn 0.928475 0.368382 0.0472041
vn 0.928475 0.348998 0.127025
vn 0.780875 0.108478 0.615197
vn 0.98058 -0.150235 0.126062
vn 0.98058 0.150235 -0.126062
vn 0 -0.642788 -0.766044
vn 0 0.342024 -0.939691
vn 0.780866 0.213661 -0.587023
vn 0.928477 -0.238725 -0.284501
vn 0.928477 -0.368377 -0.0472004
vn 0.780872 -0.241052 -0.57631
vn 0.98058 0.118849 -0.156003
vn 0.98058 -0.118849 0.156003
vn 0 0.939692 0.342021
vn 0 0.173652 0.984807
vn 0 -0.984809 0.173642
vn 0.980581 -0.193136 0.0340539
vn 0.928476 -0.348995 -0.127021
vn 0.780876 -0.108477 -0.615196
vn 0 -0.766044 0.642788
vn 0 -0.342021 0.939692
vn 0.780868 -0.213659 0.587022
vn 0 -0.17365 -0.984807
vn 0 0.766044 -0.642788
vn 0 -0.939695 -0.342014
vn 0 0.642788 0.766044
vn 0.928478 0.238724 0.2845
vn 0.980581 0.193136 -0.0340555
vn 0 0.984807 -0.17365
vn 0 -0.606012 0.795456
vn 0 -0.385873 -0.922552
vn 0 0.606011 -0.795456
vn 0 -0.991891 -0.127092
vn 0 0.795456 0.606011
vn 0 -0.127092 0.991891
vn 0.780882 -0.0793914 0.619613
vn 0.92848 0.295418 0.225061
vn 0.928482 -0.295414 -0.225058
vn 0.780878 0.0793972 -0.619618
vn 0.980582 0.18092 -0.0756739
vn 0.980582 -0.180922 0.0756739
vn 0 -0.922551 0.385874
vn 0 0.1271 -0.99189
vn 0 0.92255 -0.385877
vn 0 -0.795456 -0.606011

# Mesh 'low_Cube_low_Cube' with 76 faces
g low_Cube_low_Cube
usemtl DefaultMaterial
f  1/1/1 2/2/2 3/3/3
f  3/3/3 4/4/4 1/1/1
f  5/5/5 1/6/1 4/7/4
f  4/7/4 6/8/6 5/5/5
f  7/9/7 5/5/5 6/8/6
f  6/8/6 8/10/8 7/9/7
f  2/11/2 7/9/7 8/10/8
f  8/10/8 3/12/3 2/11/2
f  2/13/2 1/14/1 5/5/5
f  5/5/5 7/9/7 2/13/2
f  8/10/8 6/8/6 4/4/4
f  4/4/4 3/3/3 8/10/8
f  9/15/9 10/16/10 11/17/11
f  11/17/11 12/18/12 9/15/9
f  13/19/13 14/20/14 15/21/15
f  15/21/15 16/22/16 13/19/13
f  17/23/17 18/24/18 19/25/19
f  19/25/19 20/26/20 17/23/17
f  21/27/21 22/28/22 23/29/23
f  23/29/23 24/30/24 21/27/21
f  25/31/25 26/32/26 14/20/14
f  14/20/14 13/19/13 25/31/25
f  27/33/27 17/34/17 20/26/20
f  20/26/20 28/35/28 27/33/27
f  29/36/29 30/37/30 16/22/16
f  16/22/16 15/21/15 29/36/29
f  26/38/26 31/39/31 15/21/15
f  15/21/15 14/20/14 26/38/26
f  32/40/32 27/41/27 28/35/28
f  28/35/28 33/42/33 32/40/32
f  34/43/34 35/44/35 16/22/16
f  16/22/16 30/37/30 34/43/34
f  31/45/31 36/46/36 29/36/29
f  29/36/29 15/21/15 31/45/31
f  37/47/37 32/48/32 33/42/33
f  33/42/33 38/49/38 37/47/37
f  38/49/38 33/42/33 28/35/28
f  28/35/28 39/50/39 38/49/38
f  36/51/36 34/52/34 30/37/30
f  30/37/30 29/36/29 36/51/36
f  40/53/40 37/54/37 38/49/38
f  38/49/38 39/50/39 40/53/40
f  12/18/12 11/17/11 24/30/24
f  24/30/24 23/29/23 12/18/12
f  35/55/35 25/56/25 13/19/13
f  13/19/13 16/22/16 35/55/35
f  18/57/18 40/58/40 39/50/39
f  39/50/39 19/25/19 18/57/18
f  20/26/20 19/25/19 39/50/39
f  39/50/39 28/35/28 20/26/20
f  10/59/10 41/60/41 24/30/24
f  24/30/24 11/17/11 10/59/10
f  42/61/42 43/62/43 23/29/23
f  23/29/23 22/28/22 42/61/42
f  41/63/41 44/64/44 21/27/21
f  21/27/21 24/30/24 41/63/41
f  44/65/44 42/66/42 22/28/22
f  22/28/22 21/27/21 44/65/44
f  43/67/43 9/68/9 12/18/12
f  12/18/12 23/29/23 43/67/43
f  45/69/45 46/70/46 47/71/47
f  47/71/47 48/72/48 45/69/45
f  49/73/49 50/74/50 51/75/51
f  51/75/51 52/76/52 49/73/49
f  48/72/48 47/71/47 52/76/52
f  52/76/52 51/75/51 48/72/48
f  46/77/46 53/78/53 52/76/52
f  52/76/52 47/71/47 46/77/46
f  54/79/54 55/80/55 51/75/51
f  51/75/51 50/74/50 54/79/54
f  53/81/53 56/82/56 49/73/49
f  49/73/49 52/76/52 53/81/53
f  56/83/56 54/84/54 50/74/50
f  50/74/50 49/73/49 56/83/56
f  55/85/55 45/86/45 48/72/48
f  48/72/48 51/75/51 55/85/55

