# File produced by Open Asset Import Library (http://www.assimp.sf.net)
# (assimp v3.1.77322876)

mtllib Torch_Torch.mtl

# 48 vertex positions
v  0.083307 0.934198 -0.083307
v  0 0.934198 -0.117814
v  0 1 -0.12
v  0.084853 1 -0.084853
v  0.117814 0.934198 0
v  0.12 1 0
v  0.083307 0.934198 0.083307
v  0.084853 1 0.084853
v  0 0.934198 0.117814
v  0 1 0.12
v  -0.083307 0.934198 0.083307
v  -0.084853 1 0.084853
v  -0.117814 0.934198 0
v  -0.12 1 0
v  -0.083307 0.934198 -0.083307
v  -0.084853 1 -0.084853
v  -0.056569 -1 0.056569
v  0.08 -1 0
v  0.056569 -1 0.056569
v  0 -1 0.08
v  0 -1 -0.08
v  -0.056569 -1 -0.056569
v  -0.078276 0.483599 -0.078275
v  0 0.483599 -0.110698
v  -0.08 -1 0
v  -0.110698 0.483599 0
v  -0.078276 0.483599 0.078275
v  0 0.483599 0.110698
v  0.078275 0.483599 0.078275
v  0.110698 0.483599 0
v  0.056569 -1 -0.056569
v  0.078275 0.483599 -0.078275
v  0.110601 0.889761 -0.109374
v  -0.000867 0.889761 -0.155545
v  -0.109374 0.889761 -0.110601
v  -0.155545 0.889761 0.000867
v  0.150209 0.533988 -0.000867
v  0.106827 0.533988 -0.1056
v  -0.110601 0.889761 0.109374
v  0.000867 0.889761 0.155545
v  0.155545 0.889761 -0.000867
v  0.109374 0.889761 0.110601
v  0.1056 0.533988 0.106827
v  0.000867 0.533988 0.150209
v  -0.106827 0.533988 0.1056
v  -0.150209 0.533988 0.000867
v  -0.1056 0.533988 -0.106827
v  -0.000867 0.533988 -0.150209

# 102 UV coordinates
vt 0.760616 0.740782 0
vt 0.700191 0.739993 0
vt 0.700206 0.69587 0
vt 0.761752 0.696673 0
vt 0.821001 0.743106 0
vt 0.823258 0.69904 0
vt 0.881308 0.746964 0
vt 0.884684 0.70297 0
vt 0.941497 0.752354 0
vt 0.945991 0.708459 0
vt 0.519069 0.746839 0
vt 0.458876 0.752187 0
vt 0.454413 0.70829 0
vt 0.515723 0.702843 0
vt 0.579378 0.743023 0
vt 0.577152 0.698955 0
vt 0.66812 0.822539 0
vt 0.66812 0.884091 0
vt 0.624596 0.927614 0
vt 0.624596 0.779016 0
vt 0.639765 0.74074 0
vt 0.638659 0.696631 0
vt 0.766091 0.872319 0
vt 0.865157 0.872319 0
vt 0.836141 0.901334 0
vt 0.795106 0.901334 0
vt 0.227129 0.005351 0
vt 0.26816 0.005026 0
vt 0.283909 0.999396 0
vt 0.227129 0.999846 0
vt 0.309181 0.004052 0
vt 0.340674 0.998047 0
vt 0.350181 0.002427 0
vt 0.39741 0.9958 0
vt 0.391151 0.000154 0
vt 0.454104 0.992655 0
vt 0.063107 0.000155 0
vt 0.104077 0.002428 0
vt 0.056848 0.9958 0
vt 0.000154 0.992654 0
vt 0.145077 0.004052 0
vt 0.113585 0.998047 0
vt 0.186098 0.005026 0
vt 0.17035 0.999396 0
vt 0.455006 0.24834 0
vt 0.492773 0.238326 0
vt 0.492344 0.319183 0
vt 0.454685 0.308769 0
vt 0.455302 0.408769 0
vt 0.49283 0.397891 0
vt 0.494257 0.478736 0
vt 0.456369 0.46919 0
vt 0.732491 0.164999 0
vt 0.774154 0.175296 0
vt 0.773201 0.232069 0
vt 0.731216 0.240961 0
vt 0.459281 0.569149 0
vt 0.496549 0.557413 0
vt 0.499831 0.638204 0
vt 0.461734 0.629529 0
vt 0.494095 0.159627 0
vt 0.458393 0.087946 0
vt 0.49638 0.078802 0
vt 0.456685 0.148352 0
vt 0.454944 0.22855 0
vt 0.455959 0.168128 0
vt 0.734699 0.08691 0
vt 0.737718 0.010998 0
vt 0.499508 0.000154 0
vt 0.779134 0.022248 0
vt 0.776877 0.078984 0
vt 0.458785 0.06816 0
vt 0.461187 0.007777 0
vt 0.734861 0.5491 0
vt 0.738032 0.627156 0
vt 0.732648 0.47316 0
vt 0.77474 0.481533 0
vt 0.776393 0.53829 0
vt 0.731269 0.395051 0
vt 0.458311 0.549383 0
vt 0.456551 0.488979 0
vt 0.730801 0.31908 0
vt 0.772689 0.328418 0
vt 0.773039 0.385197 0
vt 0.454786 0.388986 0
vt 0.454413 0.328557 0
vt 0.77302 0.404986 0
vt 0.774022 0.461758 0
vt 0.776829 0.558074 0
vt 0.779134 0.614807 0
vt 0.77595 0.098751 0
vt 0.774345 0.155508 0
vt 0.772727 0.251852 0
vt 0.772426 0.308631 0
vt 0.795107 0.802269 0
vt 0.836141 0.802268 0
vt 0.865157 0.831284 0
vt 0.766091 0.831284 0
vt 0.519521 0.884091 0
vt 0.519521 0.822539 0
vt 0.563045 0.779016 0
vt 0.563045 0.927614 0

# 48 vertex normals
vn 0.671833 0.305189 -0.674907
vn -0.02436 0.331225 -0.943237
vn 0 0.951123 -0.308812
vn 0.632224 0.447869 -0.632224
vn 0.943237 0.331225 -0.02436
vn 0.622782 0.782395 0
vn 0.674907 0.305189 0.671833
vn 0.218362 0.951123 0.218362
vn 0.02436 0.331225 0.943237
vn 0 0.951123 0.308812
vn -0.671833 0.305189 0.674907
vn -0.632224 0.447869 0.632224
vn -0.943237 0.331225 0.02436
vn -0.622782 0.782395 0
vn -0.674907 0.305189 -0.671833
vn -0.218362 0.951123 -0.218362
vn -0.656452 -0.0787641 0.750245
vn 0.993055 -0.0972462 -0.0662213
vn 0.752148 -0.0338474 0.658124
vn 0.0664985 -0.033848 0.997212
vn -0.0664981 -0.0338479 -0.997212
vn -0.751545 -0.0524942 -0.657589
vn -0.704612 -0.0498224 -0.707842
vn -4.84259e-09 -0.0457208 -0.998954
vn -0.993055 -0.0972462 0.066214
vn -0.998954 -0.045721 2.90557e-09
vn -0.707842 -0.0498222 0.704612
vn 0 -0.0457209 0.998954
vn 0.704612 -0.0498222 0.707842
vn 0.998954 -0.0457208 0
vn 0.65538 -0.0972456 -0.749013
vn 0.707842 -0.0498222 -0.704612
vn 0.700863 0.0806675 -0.70872
vn -0.000313299 0.0698008 -0.997561
vn -0.70872 0.080669 -0.700863
vn -0.997561 0.0698024 0.000313299
vn 0.995406 -0.0957388 -0.00131625
vn 0.694438 -0.108297 -0.711356
vn -0.700863 0.080669 0.70872
vn 0.000313302 0.0698024 0.997561
vn 0.997561 0.0698024 -0.000313298
vn 0.70872 0.080669 0.700863
vn 0.706881 -0.109739 0.698768
vn 0.00131624 -0.0957392 0.995406
vn -0.698768 -0.109737 0.706881
vn -0.995406 -0.0957376 0.00131681
vn -0.706881 -0.109737 -0.698768
vn -0.00775727 -0.0969833 -0.995256

# Mesh 'low_Cylinder.002_low_Cylinder.002' with 92 faces
g low_Cylinder.002_low_Cylinder.002
usemtl DefaultMaterial
f  1/1/1 2/2/2 3/3/3
f  3/3/3 4/4/4 1/1/1
f  5/5/5 1/1/1 4/4/4
f  4/4/4 6/6/6 5/5/5
f  7/7/7 5/5/5 6/6/6
f  6/6/6 8/8/8 7/7/7
f  9/9/9 7/7/7 8/8/8
f  8/8/8 10/10/10 9/9/9
f  11/11/11 9/12/9 10/13/10
f  10/13/10 12/14/12 11/11/11
f  13/15/13 11/11/11 12/14/12
f  12/14/12 14/16/14 13/15/13
f  6/17/6 4/18/4 3/19/3
f  3/19/3 8/20/8 6/17/6
f  15/21/15 13/15/13 14/16/14
f  14/16/14 16/22/16 15/21/15
f  2/2/2 15/21/15 16/22/16
f  16/22/16 3/3/3 2/2/2
f  17/23/17 18/24/18 19/25/19
f  19/25/19 20/26/20 17/23/17
f  21/27/21 22/28/22 23/29/23
f  23/29/23 24/30/24 21/27/21
f  22/28/22 25/31/25 26/32/26
f  26/32/26 23/29/23 22/28/22
f  25/31/25 17/33/17 27/34/27
f  27/34/27 26/32/26 25/31/25
f  17/33/17 20/35/20 28/36/28
f  28/36/28 27/34/27 17/33/17
f  20/37/20 19/38/19 29/39/29
f  29/39/29 28/40/28 20/37/20
f  19/38/19 18/41/18 30/42/30
f  30/42/30 29/39/29 19/38/19
f  18/41/18 31/43/31 32/44/32
f  32/44/32 30/42/30 18/41/18
f  31/43/31 21/27/21 24/30/24
f  24/30/24 32/44/32 31/43/31
f  1/45/1 33/46/33 34/47/34
f  34/47/34 2/48/2 1/45/1
f  15/49/15 35/50/35 36/51/36
f  36/51/36 13/52/13 15/49/15
f  37/53/37 30/54/30 32/55/32
f  32/55/32 38/56/38 37/53/37
f  11/57/11 39/58/39 40/59/40
f  40/59/40 9/60/9 11/57/11
f  37/53/37 38/56/38 33/46/33
f  33/46/33 41/61/41 37/53/37
f  7/62/7 42/63/42 41/61/41
f  41/61/41 5/64/5 7/62/7
f  33/46/33 1/65/1 5/66/5
f  5/66/5 41/61/41 33/46/33
f  42/63/42 43/67/43 37/53/37
f  37/53/37 41/61/41 42/63/42
f  44/68/44 43/67/43 42/63/42
f  42/63/42 40/69/40 44/68/44
f  44/68/44 28/70/28 29/71/29
f  29/71/29 43/67/43 44/68/44
f  42/63/42 7/72/7 9/73/9
f  9/73/9 40/69/40 42/63/42
f  39/58/39 45/74/45 44/75/44
f  44/75/44 40/59/40 39/58/39
f  46/76/46 45/74/45 39/58/39
f  39/58/39 36/51/36 46/76/46
f  46/76/46 26/77/26 27/78/27
f  27/78/27 45/74/45 46/76/46
f  35/50/35 47/79/47 46/76/46
f  46/76/46 36/51/36 35/50/35
f  39/58/39 11/80/11 13/81/13
f  13/81/13 36/51/36 39/58/39
f  48/82/48 47/79/47 35/50/35
f  35/50/35 34/47/34 48/82/48
f  38/56/38 48/82/48 34/47/34
f  34/47/34 33/46/33 38/56/38
f  48/82/48 24/83/24 23/84/23
f  23/84/23 47/79/47 48/82/48
f  35/50/35 15/85/15 2/86/2
f  2/86/2 34/47/34 35/50/35
f  46/76/46 47/79/47 23/87/23
f  23/87/23 26/88/26 46/76/46
f  44/75/44 45/74/45 27/89/27
f  27/89/27 28/90/28 44/75/44
f  37/53/37 43/67/43 29/91/29
f  29/91/29 30/92/30 37/53/37
f  48/82/48 38/56/38 32/93/32
f  32/93/32 24/94/24 48/82/48
f  22/95/22 21/96/21 31/97/31
f  31/97/31 25/98/25 22/95/22
f  25/98/25 31/97/31 18/24/18
f  18/24/18 17/23/17 25/98/25
f  14/99/14 12/100/12 10/101/10
f  10/101/10 16/102/16 14/99/14
f  16/102/16 10/101/10 8/20/8
f  8/20/8 3/19/3 16/102/16

