# File produced by Open Asset Import Library (http://www.assimp.sf.net)
# (assimp v3.1.77322876)

mtllib Torch_Holder.mtl

# 105 vertex positions
v  -0.166667 0 0
v  -0.5 0.333333 0
v  -0.5 0.333333 -0.1
v  -0.166667 0 -0.1
v  0.166667 2 0
v  0.5 1.66667 0
v  0.5 1.66667 -0.1
v  0.166667 2 -0.1
v  -0.15 0.1 0.1
v  -0.15 0.4 0.1
v  -0.45 0.4 0.1
v  -0.166667 2 0
v  -0.5 1.66667 0
v  -0.45 1.6 0.1
v  -0.15 1.9 0.1
v  -0.15 0.6 0.1
v  -0.075 0.7 0.1
v  -0.075 1 0.1
v  0.15 0.6 0.1
v  0.45 0.4 0.1
v  0.45 1.6 0.1
v  0.15 1.9 0.1
v  -0.5 1.66667 -0.1
v  0.5 0.333333 0
v  0.166667 0 0
v  0.15 0.1 0.1
v  0.15 0.4 0.1
v  -0.125 0.6 0.1
v  0.166667 0 -0.1
v  0.5 0.333333 -0.1
v  -0.166667 2 -0.1
v  0.075 1 0.1
v  0.075 0.7 0.1
v  0.125 0.6 0.1
v  0.125 0.6 0.106927
v  0.075 0.7 0.14
v  -0.075 0.7 0.14
v  -0.125 0.6 0.106927
v  -0.075 0.6 0.25134
v  -0.15 0.6 0.2
v  -0.075 0.6 0.3
v  -0.15 0.5 0.2
v  -0.15 0.4 0.12
v  -0.075 0.427681 0.217597
v  -0.075 0.5 0.3
v  0.075 0.5 0.3
v  0.075 0.427681 0.217597
v  0.15 0.4 0.12
v  0.15 0.5 0.2
v  0.15 0.6 0.2
v  0.075 0.6 0.25134
v  0.075 0.6 0.3
v  0 0.6 0.281881
v  -0.075 0.4 0.15
v  0.075 0.4 0.15
v  0.075 0.460218 0.2
v  0.075 0.460218 0.1
v  -0.075 0.460218 0.1
v  -0.075 0.460218 0.2
v  0.075 1 0.14
v  -0.075 1 0.14
v  0.075 1.64183 0.411049
v  0.075 1.65131 0.372189
v  -0.075 1.65131 0.372189
v  -0.075 1.64183 0.411049
v  -0.075 1.36639 0.299459
v  -0.075 1.35361 0.335776
v  0.075 1.35361 0.335776
v  0.075 1.36639 0.299459
v  -0.075 1.23574 0.270518
v  0.075 1.23574 0.270518
v  0.075 1.24426 0.232973
v  -0.075 1.24426 0.232973
v  0.090194 1.27105 0.297072
v  0.090194 1.33448 0.331604
v  -0.079089 1.33803 0.335708
v  -0.090194 1.33448 0.331604
v  0.080524 1.33803 0.335708
v  0.080524 1.2623 0.294282
v  -0.090194 1.27105 0.297072
v  -0.079089 1.2623 0.294282
v  -0.072543 1.22268 0.373389
v  -0.072543 1.26329 0.390336
v  0.082682 1.29493 0.410698
v  0.082682 1.26321 0.393433
v  -0.072543 1.29841 0.414816
v  0.073013 1.22274 0.373376
v  0.082682 1.2315 0.376167
v  -0.056815 1.27766 0.448138
v  -0.083649 1.29486 0.410712
v  -0.083649 1.26314 0.393446
v  -0.076815 1.2579 0.40436
v  0.047962 1.2056 0.410791
v  0.057631 1.21436 0.413582
v  -0.056815 1.21423 0.413606
v  -0.083649 1.23143 0.37618
v  -0.04571 1.20548 0.410815
v  0.067962 1.25817 0.401225
v  0.073013 1.26335 0.390323
v  0.073013 1.29847 0.414802
v  -0.06571 1.25805 0.40125
v  -0.04571 1.28121 0.452241
v  0.077631 1.25803 0.404335
v  0.047962 1.28133 0.452217
v  0.057631 1.27779 0.448113

# 216 UV coordinates
vt 0.175647 0.044492 0
vt 0.051553 0.171299 0
vt 0.024653 0.144975 0
vt 0.148748 0.018167 0
vt 0.327323 0.82565 0
vt 0.454732 0.698782 0
vt 0.481645 0.725809 0
vt 0.354236 0.852678 0
vt 0.195008 0.094469 0
vt 0.19639 0.207758 0
vt 0.083322 0.208595 0
vt 0.176103 0.824399 0
vt 0.051081 0.698547 0
vt 0.082565 0.661019 0
vt 0.195084 0.774286 0
vt 0.197018 0.283563 0
vt 0.225031 0.320989 0
vt 0.224699 0.434394 0
vt 0.310451 0.280788 0
vt 0.423027 0.204709 0
vt 0.423028 0.660572 0
vt 0.30836 0.774754 0
vt 0.00351 0.183327 0
vt 0.041212 0.18339 0
vt 0.040371 0.686083 0
vt 0.002669 0.68602 0
vt 0.4655 0.179382 0
vt 0.465501 0.685898 0
vt 0.326294 0.042094 0
vt 0.454037 0.16647 0
vt 0.308059 0.092771 0
vt 0.30947 0.205858 0
vt 0.206444 0.283574 0
vt 0.352678 0.014996 0
vt 0.480421 0.139371 0
vt 0.503489 0.179382 0
vt 0.50349 0.685898 0
vt 0.149405 0.85092 0
vt 0.024384 0.725068 0
vt 0.188415 0.865418 0
vt 0.188571 0.827659 0
vt 0.314432 0.828179 0
vt 0.314277 0.865937 0
vt 0.18736 0.003587 0
vt 0.312973 0.0017 0
vt 0.313539 0.039383 0
vt 0.187927 0.04127 0
vt 0.281198 0.434641 0
vt 0.762054 0.760715 0
vt 0.636018 0.760716 0
vt 0.509981 0.634679 0
vt 0.888091 0.634679 0
vt 0.509981 0.130532 0
vt 0.888091 0.130532 0
vt 0.280795 0.320939 0
vt 0.299365 0.281298 0
vt 0.992543 0.558657 0
vt 0.995132 0.559057 0
vt 0.988669 0.600834 0
vt 0.973722 0.598522 0
vt 0.917006 0.598642 0
vt 0.902069 0.601018 0
vt 0.895429 0.559269 0
vt 0.898016 0.558858 0
vt 0.636018 0.004496 0
vt 0.762054 0.004496 0
vt 0.671295 0.914117 0
vt 0.642937 0.933529 0
vt 0.671295 0.895718 0
vt 0.63353 0.829488 0
vt 0.638969 0.781373 0
vt 0.671295 0.816452 0
vt 0.671295 0.857907 0
vt 0.728012 0.857907 0
vt 0.728012 0.816452 0
vt 0.760338 0.781373 0
vt 0.765777 0.829488 0
vt 0.75637 0.933529 0
vt 0.728012 0.914117 0
vt 0.728012 0.895718 0
vt 0.699654 0.902568 0
vt 0.671295 0.788833 0
vt 0.728012 0.788833 0
vt 0.756694 0.778335 0
vt 0.775276 0.857907 0
vt 0.775276 0.895718 0
vt 0.624032 0.857907 0
vt 0.624032 0.895718 0
vt 0.642613 0.778335 0
vt 0.642937 0.769927 0
vt 0.642937 0.777489 0
vt 0.813086 0.895718 0
vt 0.586221 0.895718 0
vt 0.586221 0.820096 0
vt 0.593783 0.820096 0
vt 0.75637 0.769927 0
vt 0.75637 0.777489 0
vt 0.805524 0.820096 0
vt 0.813086 0.820096 0
vt 0.713737 0.968582 0
vt 0.75637 0.97134 0
vt 0.746917 0.97134 0
vt 0.65239 0.97134 0
vt 0.642937 0.97134 0
vt 0.436684 0.923156 0
vt 0.436684 0.885345 0
vt 0.493401 0.885345 0
vt 0.493401 0.923156 0
vt 0.417779 0.832492 0
vt 0.512306 0.832492 0
vt 0.68557 0.968582 0
vt 0.549533 0.885345 0
vt 0.545105 0.945448 0
vt 0.38498 0.945447 0
vt 0.380552 0.885345 0
vt 0.973963 0.711955 0
vt 0.917247 0.712075 0
vt 0.89801 0.556238 0
vt 0.992537 0.556037 0
vt 0.902123 0.712107 0
vt 0.901881 0.598675 0
vt 0.988846 0.59849 0
vt 0.989088 0.711922 0
vt 0.974498 0.973898 0
vt 0.974507 0.989023 0
vt 0.91779 0.989054 0
vt 0.917782 0.973929 0
vt 0.902659 0.973693 0
vt 0.903213 0.862508 0
vt 0.91772 0.861297 0
vt 0.974436 0.861266 0
vt 0.988944 0.862461 0
vt 0.989621 0.973644 0
vt 0.845943 0.97341 0
vt 0.846498 0.862226 0
vt 0.224851 0.944819 0
vt 0.224851 0.893942 0
vt 0.281494 0.893942 0
vt 0.281494 0.944819 0
vt 0.84676 0.809649 0
vt 0.903475 0.809932 0
vt 0.075832 0.869985 0
vt 0.094003 0.850164 0
vt 0.092041 0.902705 0
vt 0.074813 0.897274 0
vt 0.03804 0.974713 0
vt 0.033721 0.97901 0
vt 0.019603 0.975463 0
vt 0.036879 0.970186 0
vt 0.285008 0.939657 0
vt 0.285143 0.907061 0
vt 0.036104 0.94289 0
vt 0.018112 0.922907 0
vt 0.032415 0.925615 0
vt 0.038225 0.93787 0
vt 0.917463 0.813961 0
vt 0.97418 0.81384 0
vt 0.904 0.704778 0
vt 0.98718 0.704601 0
vt 0.988151 0.809752 0
vt 0.847284 0.704495 0
vt 0.187944 0.908334 0
vt 0.221482 0.907061 0
vt 0.221628 0.939657 0
vt 0.189639 0.924951 0
vt 0.041256 0.897186 0
vt 0.041765 0.883541 0
vt 0.188094 0.941123 0
vt 0.041444 0.864923 0
vt 0.075002 0.865011 0
vt 0.042275 0.869897 0
vt 0.074178 0.865222 0
vt 0.079676 0.852744 0
vt 0.077892 0.906126 0
vt 0.073851 0.901354 0
vt 0.089002 0.970922 0
vt 0.070423 0.970379 0
vt 0.070035 0.956731 0
vt 0.075291 0.956815 0
vt 0.021724 0.865746 0
vt 0.039938 0.865428 0
vt 0.024061 0.870215 0
vt 0.088228 0.943596 0
vt 0.069648 0.943082 0
vt 0.072425 0.938394 0
vt 0.091005 0.938908 0
vt 0.321877 0.925235 0
vt 0.316929 0.924955 0
vt 0.318667 0.908378 0
vt 0.336852 0.909684 0
vt 0.073708 0.901318 0
vt 0.04015 0.90123 0
vt 0.036982 0.937511 0
vt 0.070526 0.937704 0
vt 0.31853 0.941087 0
vt 0.071491 0.974928 0
vt 0.037947 0.974736 0
vt 0.093573 0.942535 0
vt 0.079243 0.958658 0
vt 0.078834 0.954272 0
vt 0.093668 0.97117 0
vt 0.033337 0.885231 0
vt 0.019177 0.868958 0
vt 0.036818 0.883607 0
vt 0.018874 0.898076 0
vt 0.033787 0.881247 0
vt 0.023045 0.897653 0
vt 0.0919 0.974588 0
vt 0.073321 0.974045 0
vt 0.038711 0.900517 0
vt 0.020501 0.900985 0
vt 0.184371 0.925218 0
vt 0.169501 0.94214 0
vt 0.336727 0.942136 0
vt 0.169361 0.909657 0
vt 0.465042 0.984409 0

# 105 vertex normals
vn -0.412734 -0.804832 0.426493
vn -0.936472 -0.187294 0.29655
vn -0.114594 -0.0229188 -0.993148
vn -0.249136 -0.498273 -0.830455
vn 0.402466 0.804934 0.436007
vn 0.937038 0.195216 0.289571
vn 0.099484 0.0198968 -0.99484
vn 0.249136 0.498273 -0.830455
vn -0.128713 -0.244554 0.961055
vn -0.0166251 -0.0685786 0.997507
vn -0.240369 -0.0480739 0.96949
vn -0.406446 0.812892 0.417143
vn -0.936472 0.187294 0.29655
vn -0.332908 0.0611463 0.940975
vn -0.03772 0.07544 0.996437
vn -0.0508385 0.0136175 0.998614
vn -0.537834 0.0672293 0.840366
vn -0.0655385 0.0600463 0.996042
vn 0.0508427 0.00453953 0.998696
vn 0.240369 -0.0480739 0.96949
vn 0.294955 0.058991 0.953688
vn 0.0441624 0.0839085 0.995494
vn -0.099484 0.0198968 -0.99484
vn 0.936472 -0.187294 0.29655
vn 0.395983 -0.812809 0.427246
vn 0.118102 -0.236204 0.9645
vn 0.0166527 -0.0374685 0.999159
vn 0.728222 0.354649 0.586445
vn 0.249136 -0.498273 -0.830455
vn 0.099484 -0.0198968 -0.99484
vn -0.09759 0.19518 -0.9759
vn 0.179127 0.160196 0.970696
vn 0.537834 0.0672293 0.840366
vn -0.319195 0.297874 0.899659
vn 0.150649 -0.301298 0.941554
vn 0.25737 -0.0476288 0.965138
vn -0.206381 -0.0750327 0.975591
vn -0.0424916 -0.389298 0.920131
vn 0.648932 0.663236 -0.372833
vn -0.830053 0.462734 0.31127
vn -0.376199 0.376832 0.846447
vn -0.953329 -0.130257 0.272391
vn -0.85783 -0.408813 0.311448
vn -0.19495 -0.816086 0.544057
vn -0.372157 -0.400423 0.837353
vn 0.407768 -0.37434 0.832823
vn 0.136942 -0.824211 0.549474
vn 0.876919 -0.382328 0.29127
vn 0.947758 -0.11847 0.296174
vn 0.809226 0.503055 0.30346
vn -0.665845 0.589274 -0.45761
vn 0.376199 0.376832 0.846447
vn 0 0.581838 -0.813305
vn -0.033202 -0.96793 0.249015
vn 0.033202 -0.96793 0.249015
vn -0.355968 0.704876 -0.613545
vn -0.434488 0.621665 0.651731
vn 0.476648 0.51149 0.714972
vn 0.381198 0.650382 -0.657032
vn 0.250808 -0.229132 0.940528
vn -0.256637 -0.228771 0.939043
vn 0.252937 -0.117464 0.960326
vn 0.255109 0.363065 -0.896161
vn -0.258192 0.362757 -0.895402
vn -0.255998 -0.117366 0.959526
vn -0.25554 0.324528 -0.910703
vn -0.179724 -0.320293 0.930114
vn 0.158497 -0.323814 0.93275
vn 0.232023 0.325551 -0.916614
vn -0.145178 -0.480576 0.864853
vn 0.173928 -0.479823 0.859953
vn 0.253296 0.456625 -0.852839
vn -0.224824 0.45829 -0.859898
vn 0.992955 -0.100824 -0.0622506
vn 0.994842 0.101298 0.00525296
vn 0.979189 0.187067 0.0787093
vn -0.993662 0.107956 0.0313227
vn -0.995775 0.0911332 0.0112291
vn -0.913477 -0.406324 -0.0214537
vn -0.987761 -0.100207 -0.119527
vn 0.989094 -0.141243 -0.0417556
vn 0.90942 -0.181463 -0.3742
vn 0.990412 0.0708369 -0.118598
vn 0.946605 0.0914839 0.309144
vn 0.992131 -0.0709142 0.103182
vn 0.925166 0.369888 -0.0851472
vn -0.939173 -0.121163 -0.321361
vn 0.949252 -0.288681 0.124832
vn -0.595897 -0.274979 0.754515
vn -0.941864 0.10278 0.319889
vn -0.991215 -0.0579519 0.118892
vn -0.626487 -0.356191 0.693284
vn -0.93497 0.127051 -0.331194
vn 0.666983 -0.450065 0.593781
vn -0.751817 -0.379711 0.539066
vn -0.940183 -0.321727 0.112021
vn 0.601163 -0.327838 0.728784
vn -0.975843 0.0556793 -0.211259
vn -0.992255 0.0498973 -0.113752
vn -0.933727 0.345774 -0.092706
vn 0.969197 0.176052 -0.172229
vn 0.926295 0.251226 -0.280825
vn 0.717506 -0.297786 0.62969
vn -0.924604 -0.10184 0.367065
vn 0.782779 -0.208281 0.58641

# Mesh 'low_Cube.002_low_Cube.002' with 206 faces
g low_Cube.002_low_Cube.002
usemtl DefaultMaterial
f  1/1/1 2/2/2 3/3/3
f  3/3/3 4/4/4 1/1/1
f  5/5/5 6/6/6 7/7/7
f  7/7/7 8/8/8 5/5/5
f  9/9/9 10/10/10 11/11/11
f  12/12/12 13/13/13 14/14/14
f  14/14/14 15/15/15 12/12/12
f  16/16/16 17/17/17 18/18/18
f  18/18/18 15/15/15 16/16/16
f  19/19/19 20/20/20 21/21/21
f  21/21/21 22/22/22 19/19/19
f  3/23/3 2/24/2 13/25/13
f  13/25/13 23/26/23 3/23/3
f  11/11/11 16/16/16 15/15/15
f  15/15/15 14/14/14 11/11/11
f  20/20/20 24/27/24 6/28/6
f  6/28/6 21/21/21 20/20/20
f  25/29/25 24/30/24 20/20/20
f  20/20/20 26/31/26 25/29/25
f  26/31/26 20/20/20 27/32/27
f  28/33/28 17/17/17 16/16/16
f  29/34/29 30/35/30 24/30/24
f  24/30/24 25/29/25 29/34/29
f  24/27/24 30/36/30 7/37/7
f  7/37/7 6/28/6 24/27/24
f  2/24/2 11/11/11 14/14/14
f  14/14/14 13/25/13 2/24/2
f  31/38/31 23/39/23 13/13/13
f  13/13/13 12/12/12 31/38/31
f  22/22/22 21/21/21 6/6/6
f  6/6/6 5/5/5 22/22/22
f  9/9/9 11/11/11 2/2/2
f  2/2/2 1/1/1 9/9/9
f  31/40/31 12/41/12 5/42/5
f  5/42/5 8/43/8 31/40/31
f  4/44/4 29/45/29 25/46/25
f  25/46/25 1/47/1 4/44/4
f  18/18/18 32/48/32 22/22/22
f  22/22/22 15/15/15 18/18/18
f  31/49/31 8/50/8 7/51/7
f  7/51/7 23/52/23 31/49/31
f  23/52/23 7/51/7 30/53/30
f  30/53/30 3/54/3 23/52/23
f  19/19/19 33/55/33 34/56/34
f  35/57/35 34/58/34 33/59/33
f  33/59/33 36/60/36 35/57/35
f  9/9/9 26/31/26 27/32/27
f  27/32/27 10/10/10 9/9/9
f  33/55/33 19/19/19 22/22/22
f  22/22/22 32/48/32 33/55/33
f  37/61/37 17/62/17 28/63/28
f  28/63/28 38/64/38 37/61/37
f  1/47/1 25/46/25 26/31/26
f  26/31/26 9/9/9 1/47/1
f  22/22/22 5/42/5 12/41/12
f  12/41/12 15/15/15 22/22/22
f  3/54/3 30/53/30 29/65/29
f  29/65/29 4/66/4 3/54/3
f  39/67/39 40/68/40 41/69/41
f  42/70/42 43/71/43 44/72/44
f  44/72/44 45/73/45 42/70/42
f  46/74/46 47/75/47 48/76/48
f  48/76/48 49/77/49 46/74/46
f  50/78/50 51/79/51 52/80/52
f  41/69/41 53/81/53 39/67/39
f  44/72/44 54/82/54 55/83/55
f  55/83/55 47/75/47 44/72/44
f  20/20/20 19/19/19 27/32/27
f  10/10/10 16/16/16 11/11/11
f  44/72/44 47/75/47 46/74/46
f  46/74/46 45/73/45 44/72/44
f  45/73/45 46/74/46 52/80/52
f  52/80/52 41/69/41 45/73/45
f  55/83/55 48/84/48 47/75/47
f  46/74/46 49/85/49 50/86/50
f  50/86/50 52/80/52 46/74/46
f  42/87/42 45/73/45 41/69/41
f  41/69/41 40/88/40 42/87/42
f  51/79/51 53/81/53 52/80/52
f  54/82/54 44/72/44 43/89/43
f  10/90/10 54/82/54 43/91/43
f  19/92/19 50/86/50 49/85/49
f  16/93/16 10/94/10 43/95/43
f  43/95/43 42/87/42 16/93/16
f  27/96/27 48/97/48 55/83/55
f  48/98/48 27/99/27 19/92/19
f  19/92/19 49/85/49 48/98/48
f  54/82/54 10/90/10 27/96/27
f  27/96/27 55/83/55 54/82/54
f  53/81/53 51/79/51 56/100/56
f  50/78/50 19/101/19 34/102/34
f  34/102/34 51/79/51 50/78/50
f  16/93/16 42/87/42 40/88/40
f  39/67/39 28/103/28 16/104/16
f  16/104/16 40/68/40 39/67/39
f  56/105/56 57/106/57 58/107/58
f  58/107/58 59/108/59 56/105/56
f  57/106/57 34/109/34 28/110/28
f  28/110/28 58/107/58 57/106/57
f  39/67/39 53/81/53 59/111/59
f  58/107/58 28/112/28 39/113/39
f  39/113/39 59/108/59 58/107/58
f  56/105/56 51/114/51 34/115/34
f  34/115/34 57/106/57 56/105/56
f  38/64/38 35/57/35 36/60/36
f  36/60/36 37/61/37 38/64/38
f  37/61/37 36/60/36 60/116/60
f  60/116/60 61/117/61 37/61/37
f  38/64/38 28/118/28 34/119/34
f  34/119/34 35/57/35 38/64/38
f  61/117/61 18/120/18 17/121/17
f  17/121/17 37/61/37 61/117/61
f  36/60/36 33/122/33 32/123/32
f  32/123/32 60/116/60 36/60/36
f  62/124/62 63/125/63 64/126/64
f  64/126/64 65/127/65 62/124/62
f  64/128/64 66/129/66 67/130/67
f  67/130/67 65/127/65 64/128/64
f  62/124/62 68/131/68 69/132/69
f  69/132/69 63/133/63 62/124/62
f  63/134/63 69/135/69 66/129/66
f  66/129/66 64/128/64 63/134/63
f  65/127/65 67/130/67 68/131/68
f  68/131/68 62/124/62 65/127/65
f  67/136/67 70/137/70 71/138/71
f  71/138/71 68/139/68 67/136/67
f  69/135/69 72/140/72 73/141/73
f  73/141/73 66/129/66 69/135/69
f  74/142/74 72/143/72 69/144/69
f  69/144/69 75/145/75 74/142/74
f  76/146/76 67/147/67 66/148/66
f  66/148/66 77/149/77 76/146/76
f  78/150/78 68/139/68 71/138/71
f  71/138/71 79/151/79 78/150/78
f  80/152/80 73/153/73 70/154/70
f  70/154/70 81/155/81 80/152/80
f  70/156/70 61/117/61 60/116/60
f  60/116/60 71/157/71 70/156/70
f  73/141/73 18/158/18 61/117/61
f  61/117/61 70/156/70 73/141/73
f  71/157/71 60/116/60 32/159/32
f  32/159/32 72/160/72 71/157/71
f  72/140/72 32/161/32 18/158/18
f  18/158/18 73/141/73 72/140/72
f  82/162/82 81/163/81 76/164/76
f  76/164/76 83/165/83 82/162/82
f  75/145/75 84/166/84 85/167/85
f  77/149/77 66/148/66 73/153/73
f  73/153/73 80/152/80 77/149/77
f  81/163/81 70/137/70 67/136/67
f  67/136/67 76/164/76 81/163/81
f  76/164/76 86/168/86 83/165/83
f  87/169/87 79/170/79 74/142/74
f  74/142/74 88/171/88 87/169/87
f  79/172/79 71/173/71 72/143/72
f  72/143/72 74/142/74 79/172/79
f  75/145/75 69/144/69 68/174/68
f  68/174/68 78/175/78 75/145/75
f  89/176/89 90/177/90 91/178/91
f  91/178/91 92/179/92 89/176/89
f  93/180/93 87/181/87 88/171/88
f  88/171/88 94/182/94 93/180/93
f  95/183/95 96/184/96 82/185/82
f  82/185/82 97/186/97 95/183/95
f  98/187/98 99/188/99 87/189/87
f  87/189/87 93/190/93 98/187/98
f  88/171/88 74/142/74 75/145/75
f  75/145/75 85/167/85 88/171/88
f  84/166/84 75/145/75 78/191/78
f  78/191/78 100/192/100 84/166/84
f  96/184/96 80/152/80 81/193/81
f  81/193/81 82/194/82 96/184/96
f  78/150/78 99/188/99 100/195/100
f  77/149/77 91/178/91 90/177/90
f  99/188/99 78/150/78 79/151/79
f  79/151/79 87/189/87 99/188/99
f  91/178/91 77/149/77 80/152/80
f  80/152/80 96/184/96 91/178/91
f  86/196/86 76/197/76 77/149/77
f  77/149/77 90/177/90 86/196/86
f  92/179/92 95/183/95 97/198/97
f  97/198/97 101/199/101 92/179/92
f  89/176/89 92/179/92 101/200/101
f  101/200/101 102/201/102 89/176/89
f  98/202/98 93/203/93 94/182/94
f  94/182/94 103/204/103 98/202/98
f  104/205/104 98/206/98 103/204/103
f  103/204/103 105/207/105 104/205/104
f  103/204/103 85/167/85 84/166/84
f  84/166/84 105/207/105 103/204/103
f  92/179/92 91/178/91 96/184/96
f  96/184/96 95/183/95 92/179/92
f  94/182/94 88/171/88 85/167/85
f  85/167/85 103/204/103 94/182/94
f  102/208/102 86/209/86 90/177/90
f  90/177/90 89/176/89 102/208/102
f  105/207/105 84/166/84 100/210/100
f  100/210/100 104/211/104 105/207/105
f  101/212/101 83/165/83 86/168/86
f  86/168/86 102/213/102 101/212/101
f  104/214/104 100/195/100 99/188/99
f  99/188/99 98/187/98 104/214/104
f  97/215/97 82/162/82 83/165/83
f  83/165/83 101/212/101 97/215/97
f  59/108/59 53/216/53 56/105/56
f  53/81/53 41/69/41 52/80/52

