# File produced by Open Asset Import Library (http://www.assimp.sf.net)
# (assimp v3.1.193236683)

mtllib Wall_dungeon_left.mtl

# 35 vertex positions
v  1.7 2 0
v  1.7 1.8 0
v  2 1.8 0
v  2 2 0
v  1.7 0.2 0
v  1.7 0.1 0.3
v  2 0.1 0.3
v  2 0.2 0
v  1.7 0.4 0
v  2 0.4 0
v  1.7 0.6 0
v  2 0.6 0
v  1.7 0.8 0
v  2 0.8 0
v  1.7 1 0
v  2 1 0
v  1.7 1.2 0
v  2 1.2 0
v  1.7 1.4 0
v  2 1.4 0
v  1.7 1.6 0
v  2 1.6 0
v  2.2 1.8 0
v  2.2 1.6 0
v  2.2 1.4 0
v  2.2 1.2 0
v  2.2 1 0
v  2.2 0.8 0
v  2.2 0.6 0
v  2.2 0.4 0
v  2.2 0.1 0.3
v  2 0 0.3
v  2.2 0 0.3
v  2.2 0.2 0
v  1.7 0 0.3

# 35 UV coordinates
vt 4.8e-05 0.999952 0
vt 4.8e-05 0.909718 0
vt 0.1354 0.909718 0
vt 0.1354 0.999952 0
vt 4.8e-05 0.187839 0
vt 4.7e-05 0.045165 0
vt 0.1354 0.045165 0
vt 0.1354 0.187839 0
vt 4.8e-05 0.278074 0
vt 0.1354 0.278074 0
vt 4.8e-05 0.368308 0
vt 0.1354 0.368308 0
vt 4.8e-05 0.458543 0
vt 0.1354 0.458543 0
vt 4.8e-05 0.548778 0
vt 0.1354 0.548778 0
vt 4.8e-05 0.639013 0
vt 0.1354 0.639013 0
vt 4.8e-05 0.729248 0
vt 0.1354 0.729248 0
vt 4.8e-05 0.819483 0
vt 0.1354 0.819483 0
vt 0.225635 0.909718 0
vt 0.225635 0.819483 0
vt 0.225635 0.729248 0
vt 0.225635 0.639013 0
vt 0.225635 0.548778 0
vt 0.225635 0.458543 0
vt 0.225635 0.368308 0
vt 0.225635 0.278074 0
vt 0.225635 0.045165 0
vt 0.1354 4.8e-05 0
vt 0.225635 4.7e-05 0
vt 0.225635 0.187839 0
vt 4.7e-05 4.8e-05 0

# 6 vertex normals
vn 0 0 1
vn 0 0.707107 0.707107
vn 0 0.83205 0.5547
vn 0 0.83205 0.5547
vn 0 0.806405 0.591364
vn 0 0.948683 0.316228

# Mesh 'low_Plane_low_Plane' with 34 faces
g low_Plane_low_Plane
usemtl DefaultMaterial
f  1/1/1 2/2/1 3/3/1
f  3/3/1 4/4/1 1/1/1
f  5/5/2 6/6/3 7/7/4
f  7/7/4 8/8/5 5/5/2
f  9/9/1 5/5/2 8/8/5
f  8/8/5 10/10/1 9/9/1
f  11/11/1 9/9/1 10/10/1
f  10/10/1 12/12/1 11/11/1
f  13/13/1 11/11/1 12/12/1
f  12/12/1 14/14/1 13/13/1
f  15/15/1 13/13/1 14/14/1
f  14/14/1 16/16/1 15/15/1
f  17/17/1 15/15/1 16/16/1
f  16/16/1 18/18/1 17/17/1
f  19/19/1 17/17/1 18/18/1
f  18/18/1 20/20/1 19/19/1
f  21/21/1 19/19/1 20/20/1
f  20/20/1 22/22/1 21/21/1
f  23/23/1 3/3/1 22/22/1
f  22/22/1 24/24/1 23/23/1
f  25/25/1 20/20/1 18/18/1
f  18/18/1 26/26/1 25/25/1
f  27/27/1 16/16/1 14/14/1
f  14/14/1 28/28/1 27/27/1
f  29/29/1 12/12/1 10/10/1
f  10/10/1 30/30/1 29/29/1
f  31/31/4 7/7/4 32/32/1
f  32/32/1 33/33/1 31/31/4
f  34/34/6 8/8/5 7/7/4
f  7/7/4 31/31/4 34/34/6
f  2/2/1 21/21/1 22/22/1
f  22/22/1 3/3/1 2/2/1
f  6/6/3 35/35/1 32/32/1
f  32/32/1 7/7/4 6/6/3

