# File produced by Open Asset Import Library (http://www.assimp.sf.net)
# (assimp v3.1.193236683)

mtllib Wall_dungeon_right.mtl

# 34 vertex positions
v  0 0.2 0
v  0.2 0.2 0
v  0.2 0.4 0
v  0 0.4 0
v  0 0.6 0
v  0.2 0.6 0
v  0.2 0.8 0
v  0 0.8 0
v  0 1 0
v  0.2 1 0
v  0.2 1.2 0
v  0 1.2 0
v  0 1.4 0
v  0.2 1.4 0
v  0.2 1.6 0
v  0 1.6 0
v  0 1.8 0
v  0.2 1.8 0
v  0.2 2 0
v  0 2 0
v  0.2 0.1 0.3
v  0.2 0 0.3
v  0.7 0 0.3
v  0.7 0.1 0.3
v  0.7 1.8 0
v  0.7 2 0
v  0.7 0.2 0
v  0.7 0.4 0
v  0.7 0.6 0
v  0.7 0.8 0
v  0.7 1 0
v  0.7 1.2 0
v  0.7 1.4 0
v  0.7 1.6 0

# 34 UV coordinates
vt 5.6e-05 0.187844 0
vt 0.09029 0.187844 0
vt 0.09029 0.278077 0
vt 5.6e-05 0.278077 0
vt 5.6e-05 0.368311 0
vt 0.090289 0.368311 0
vt 0.090289 0.458544 0
vt 5.6e-05 0.458544 0
vt 5.6e-05 0.548777 0
vt 0.090289 0.548777 0
vt 0.090289 0.639011 0
vt 5.6e-05 0.639011 0
vt 5.6e-05 0.729244 0
vt 0.09029 0.729244 0
vt 0.09029 0.819477 0
vt 5.6e-05 0.819477 0
vt 5.6e-05 0.909711 0
vt 0.09029 0.90971 0
vt 0.09029 0.999944 0
vt 5.6e-05 0.999944 0
vt 0.09029 0.045173 0
vt 0.09029 5.6e-05 0
vt 0.315873 5.6e-05 0
vt 0.315873 0.045173 0
vt 0.315873 0.90971 0
vt 0.315873 0.999944 0
vt 0.315873 0.187844 0
vt 0.315873 0.278077 0
vt 0.315873 0.368311 0
vt 0.315873 0.458544 0
vt 0.315873 0.548777 0
vt 0.315873 0.639011 0
vt 0.315873 0.729244 0
vt 0.315873 0.819477 0

# 4 vertex normals
vn 0 0 1
vn 0 0.619644 0.784883
vn 0 0.83205 0.5547
vn 0 0.707107 0.707107

# Mesh 'low.001_Plane.001_low.001_Plane.001' with 32 faces
g low.001_Plane.001_low.001_Plane.001
usemtl DefaultMaterial
f  1/1/1 2/2/2 3/3/1
f  3/3/1 4/4/1 1/1/1
f  5/5/1 6/6/1 7/7/1
f  7/7/1 8/8/1 5/5/1
f  9/9/1 10/10/1 11/11/1
f  11/11/1 12/12/1 9/9/1
f  13/13/1 14/14/1 15/15/1
f  15/15/1 16/16/1 13/13/1
f  17/17/1 18/18/1 19/19/1
f  19/19/1 20/20/1 17/17/1
f  21/21/3 22/22/1 23/23/1
f  23/23/1 24/24/3 21/21/3
f  19/19/1 18/18/1 25/25/1
f  25/25/1 26/26/1 19/19/1
f  2/2/2 21/21/3 24/24/3
f  24/24/3 27/27/4 2/2/2
f  3/3/1 2/2/2 27/27/4
f  27/27/4 28/28/1 3/3/1
f  6/6/1 3/3/1 28/28/1
f  28/28/1 29/29/1 6/6/1
f  7/7/1 6/6/1 29/29/1
f  29/29/1 30/30/1 7/7/1
f  10/10/1 7/7/1 30/30/1
f  30/30/1 31/31/1 10/10/1
f  11/11/1 10/10/1 31/31/1
f  31/31/1 32/32/1 11/11/1
f  14/14/1 11/11/1 32/32/1
f  32/32/1 33/33/1 14/14/1
f  15/15/1 14/14/1 33/33/1
f  33/33/1 34/34/1 15/15/1
f  18/18/1 15/15/1 34/34/1
f  34/34/1 25/25/1 18/18/1

