# File produced by Open Asset Import Library (http://www.assimp.sf.net)
# (assimp v3.1.77322876)

mtllib Substance_Cornerpillar.mtl

# 170 vertex positions
v  0.42 0.18 0
v  0.42 0.18 -0.29925
v  0.4 0.2 -0.3
v  0.4 0.2 0
v  0.3 2 -0.42
v  0.3 2 -0.4
v  0.4 2 -0.4
v  0.4 2 -0.42
v  0.4 2 -0.3
v  0.4 2 0
v  0.4 0 0
v  0.4 0 -0.3
v  0.5 0 -0.3
v  0.5 0 0
v  0.3 2 0
v  0.3 2 -0.3
v  0 2 -0.3
v  0 2 0
v  0.5 0 -0.5
v  0.4 0 -0.5
v  0.4 0.1 -0.5
v  0.5 0.1 -0.5
v  0.5 0.1 -0.3
v  0.5 0.1 0
v  0.5 0 -0.4
v  0.5 0.1 -0.4
v  0 2 -0.4
v  0.4 0 -0.4
v  0 0 -0.3
v  0 0 -0.4
v  0.3 0 -0.4
v  0.3 0 -0.3
v  0.3 0 -0.5
v  0 0 -0.5
v  0 0.1 -0.5
v  0.3 0.1 -0.5
v  0 0 0
v  0.3 0 0
v  0.29925 0.18 -0.42
v  0 0.18 -0.42
v  0 0.2 -0.4
v  0.3 0.2 -0.4
v  0.4 0.2 -0.42
v  0.3 0.2 -0.42
v  0.4 0.2 -0.4
v  0.42 0.2 -0.3
v  0.42 0.2 -0.4
v  0.42 2 -0.4
v  0.42 2 -0.3
v  0.42 0.18 -0.399473
v  0.399473 0.18 -0.42
v  0.42 0.18 -0.42
v  -0.4 0.2 -0.3
v  -0.42 0.18 -0.29925
v  -0.42 0.18 0
v  -0.4 0.2 0
v  -0.4 2 -0.4
v  -0.3 2 -0.4
v  -0.3 2 -0.42
v  -0.4 2 -0.42
v  -0.4 2 -0.3
v  -0.4 2 0
v  -0.5 0 -0.3
v  -0.4 0 -0.3
v  -0.4 0 0
v  -0.5 0 0
v  -0.3 2 -0.3
v  -0.3 2 0
v  -0.4 0.1 -0.5
v  -0.4 0 -0.5
v  -0.5 0 -0.5
v  -0.5 0.1 -0.5
v  -0.5 0.1 -0.3
v  -0.5 0.1 0
v  -0.5 0.1 -0.4
v  -0.5 0 -0.4
v  -0.4 0 -0.4
v  -0.3 0 -0.4
v  -0.3 0 -0.3
v  -0.3 0 -0.5
v  -0.3 0.1 -0.5
v  -0.3 0 0
v  -0.29925 0.18 -0.42
v  -0.3 0.2 -0.4
v  -0.3 0.2 -0.42
v  -0.4 0.2 -0.42
v  -0.4 0.2 -0.4
v  -0.42 2 -0.4
v  -0.42 0.2 -0.4
v  -0.42 0.2 -0.3
v  -0.42 2 -0.3
v  -0.42 0.18 -0.399473
v  -0.399473 0.18 -0.42
v  -0.42 0.18 -0.42
v  0.4 0.2 0.3
v  0.42 0.18 0.29925
v  0.4 2 0.4
v  0.3 2 0.4
v  0.3 2 0.42
v  0.4 2 0.42
v  0.4 2 0.3
v  0.5 0 0.3
v  0.4 0 0.3
v  0 2 0.3
v  0.3 2 0.3
v  0.4 0.1 0.5
v  0.4 0 0.5
v  0.5 0 0.5
v  0.5 0.1 0.5
v  0.5 0.1 0.3
v  0.5 0.1 0.4
v  0.5 0 0.4
v  0 2 0.4
v  0.4 0 0.4
v  0.3 0 0.4
v  0 0 0.4
v  0 0 0.3
v  0.3 0 0.3
v  0 0.1 0.5
v  0 0 0.5
v  0.3 0 0.5
v  0.3 0.1 0.5
v  0 0.2 0.4
v  0 0.18 0.42
v  0.29925 0.18 0.42
v  0.3 0.2 0.4
v  0.3 0.2 0.42
v  0.4 0.2 0.42
v  0.4 0.2 0.4
v  0.42 2 0.4
v  0.42 0.2 0.4
v  0.42 0.2 0.3
v  0.42 2 0.3
v  0.42 0.18 0.399473
v  0.399473 0.18 0.42
v  0.42 0.18 0.42
v  -0.42 0.18 0.29925
v  -0.4 0.2 0.3
v  -0.3 2 0.42
v  -0.3 2 0.4
v  -0.4 2 0.4
v  -0.4 2 0.42
v  -0.4 2 0.3
v  -0.4 0 0.3
v  -0.5 0 0.3
v  -0.3 2 0.3
v  -0.5 0 0.5
v  -0.4 0 0.5
v  -0.4 0.1 0.5
v  -0.5 0.1 0.5
v  -0.5 0.1 0.3
v  -0.5 0 0.4
v  -0.5 0.1 0.4
v  -0.4 0 0.4
v  -0.3 0 0.4
v  -0.3 0 0.3
v  -0.3 0 0.5
v  -0.3 0.1 0.5
v  -0.29925 0.18 0.42
v  -0.3 0.2 0.4
v  -0.4 0.2 0.42
v  -0.3 0.2 0.42
v  -0.4 0.2 0.4
v  -0.42 0.2 0.3
v  -0.42 0.2 0.4
v  -0.42 2 0.4
v  -0.42 2 0.3
v  -0.42 0.18 0.399473
v  -0.399473 0.18 0.42
v  -0.42 0.18 0.42

# 248 UV coordinates
vt 0.423248 0.630401 0
vt 0.365512 0.572625 0
vt 0.370828 0.567023 0
vt 0.428709 0.624944 0
vt 0.902653 0.854456 0
vt 0.902653 0.848997 0
vt 0.929947 0.848997 0
vt 0.929947 0.854456 0
vt 0.874894 0.050392 0
vt 0.954284 0.05166 0
vt 0.946682 0.528003 0
vt 0.867291 0.526736 0
vt 0.362791 0.690816 0
vt 0.30491 0.632896 0
vt 0.324217 0.613602 0
vt 0.382098 0.671523 0
vt 0.902653 0.739818 0
vt 0.902653 0.821702 0
vt 0.820769 0.821702 0
vt 0.820769 0.739818 0
vt 0.28563 0.574989 0
vt 0.266323 0.594282 0
vt 0.24703 0.574975 0
vt 0.266337 0.555682 0
vt 0.343524 0.594309 0
vt 0.401405 0.652229 0
vt 0.304924 0.594295 0
vt 0.32423 0.575002 0
vt 0.820769 0.848997 0
vt 0.285617 0.613589 0
vt 0.227683 0.71007 0
vt 0.20839 0.690763 0
vt 0.26631 0.632882 0
vt 0.285604 0.652189 0
vt 0.929947 0.821702 0
vt 0.247017 0.613576 0
vt 0.189096 0.671456 0
vt 0.169803 0.65215 0
vt 0.227723 0.594269 0
vt 0.929947 0.739818 0
vt 0.285564 0.76799 0
vt 0.343484 0.71011 0
vt 0.20575 0.57257 0
vt 0.147974 0.630306 0
vt 0.142517 0.624846 0
vt 0.200438 0.566965 0
vt 0.045699 0.051739 0
vt 0.125073 0.050473 0
vt 0.132671 0.526718 0
vt 0.053297 0.527985 0
vt 0.007596 0.052566 0
vt 0.038219 0.051744 0
vt 0.045042 0.528145 0
vt 0.01848 0.528594 0
vt 0.010173 0.528795 0
vt 0.000137 0.052811 0
vt 0.961764 0.051638 0
vt 0.9924 0.052594 0
vt 0.981308 0.528644 0
vt 0.954996 0.528109 0
vt 0.999863 0.052814 0
vt 0.989643 0.528795 0
vt 0.935406 0.848997 0
vt 0.935406 0.821702 0
vt 0.346175 0.553276 0
vt 0.2251 0.553234 0
vt 0.229063 0.549274 0
vt 0.961734 0.044948 0
vt 0.304937 0.555695 0
vt 0.342215 0.549312 0
vt 0.038247 0.04505 0
vt 0.007405 0.045913 0
vt 0.992591 0.045933 0
vt 0.351534 0.547717 0
vt 0.219745 0.547671 0
vt 0.084539 0.853116 0
vt 0.090144 0.847804 0
vt 0.14788 0.90558 0
vt 0.142419 0.911037 0
vt 0.711591 0.848997 0
vt 0.738885 0.848997 0
vt 0.738885 0.854456 0
vt 0.711591 0.854456 0
vt 0.29814 0.524552 0
vt 0.295608 0.048154 0
vt 0.375008 0.047732 0
vt 0.37754 0.52413 0
vt 0.131149 0.806538 0
vt 0.150456 0.787244 0
vt 0.208337 0.845164 0
vt 0.18903 0.864458 0
vt 0.738885 0.821702 0
vt 0.738885 0.739818 0
vt 0.092576 0.729324 0
vt 0.111869 0.74863 0
vt 0.092562 0.767924 0
vt 0.073269 0.748617 0
vt 0.111843 0.825831 0
vt 0.169723 0.883751 0
vt 0.092549 0.806524 0
vt 0.111856 0.787231 0
vt 0.131163 0.767937 0
vt 0.150469 0.748644 0
vt 0.169763 0.767951 0
vt 0.711591 0.821702 0
vt 0.131176 0.729337 0
vt 0.111882 0.71003 0
vt 0.711591 0.739818 0
vt 0.227644 0.825871 0
vt 0.090199 0.688042 0
vt 0.084597 0.682726 0
vt 0.204447 0.049206 0
vt 0.212045 0.525452 0
vt 0.220301 0.525349 0
vt 0.211923 0.048972 0
vt 0.242556 0.048818 0
vt 0.246864 0.52495 0
vt 0.25002 0.048824 0
vt 0.255173 0.524886 0
vt 0.263509 0.524824 0
vt 0.257484 0.048683 0
vt 0.288129 0.048053 0
vt 0.289825 0.524569 0
vt 0.706132 0.848997 0
vt 0.706132 0.821702 0
vt 0.070808 0.828454 0
vt 0.070849 0.707379 0
vt 0.066886 0.711339 0
vt 0.28823 0.041364 0
vt 0.066847 0.824491 0
vt 0.073255 0.787218 0
vt 0.211682 0.042283 0
vt 0.242535 0.042161 0
vt 0.257365 0.04202 0
vt 0.065245 0.833809 0
vt 0.06529 0.70202 0
vt 0.486589 0.682864 0
vt 0.480984 0.688177 0
vt 0.929947 0.63064 0
vt 0.902653 0.63064 0
vt 0.902653 0.625181 0
vt 0.929947 0.625181 0
vt 0.787901 0.525469 0
vt 0.795503 0.049125 0
vt 0.439978 0.729443 0
vt 0.420672 0.748737 0
vt 0.820769 0.657935 0
vt 0.902653 0.657935 0
vt 0.478552 0.806657 0
vt 0.459259 0.78735 0
vt 0.478565 0.768057 0
vt 0.497859 0.787363 0
vt 0.459285 0.710149 0
vt 0.478579 0.729456 0
vt 0.459272 0.74875 0
vt 0.820769 0.63064 0
vt 0.439965 0.768043 0
vt 0.420658 0.787337 0
vt 0.362738 0.845217 0
vt 0.343444 0.825911 0
vt 0.401365 0.76803 0
vt 0.929947 0.657935 0
vt 0.401325 0.883831 0
vt 0.382032 0.864524 0
vt 0.439952 0.806644 0
vt 0.459245 0.82595 0
vt 0.42861 0.911135 0
vt 0.423153 0.905674 0
vt 0.480929 0.847938 0
vt 0.486531 0.853254 0
vt 0.622423 0.524115 0
vt 0.624957 0.047816 0
vt 0.704341 0.048238 0
vt 0.701806 0.524537 0
vt 0.710062 0.52461 0
vt 0.711819 0.048163 0
vt 0.74245 0.04866 0
vt 0.736627 0.524776 0
vt 0.749911 0.048825 0
vt 0.744936 0.52489 0
vt 0.753271 0.525005 0
vt 0.757377 0.048843 0
vt 0.788028 0.048865 0
vt 0.779587 0.52531 0
vt 0.935406 0.63064 0
vt 0.935406 0.657935 0
vt 0.50032 0.707526 0
vt 0.500278 0.828602 0
vt 0.504242 0.824641 0
vt 0.788272 0.04218 0
vt 0.504281 0.711489 0
vt 0.497872 0.748763 0
vt 0.711721 0.04147 0
vt 0.74257 0.042005 0
vt 0.757399 0.042179 0
vt 0.505883 0.702171 0
vt 0.505837 0.833961 0
vt 0.205616 0.963355 0
vt 0.2003 0.968957 0
vt 0.738885 0.625181 0
vt 0.738885 0.63064 0
vt 0.711591 0.63064 0
vt 0.711591 0.625181 0
vt 0.454407 0.04731 0
vt 0.456939 0.523707 0
vt 0.266217 0.903085 0
vt 0.246911 0.922378 0
vt 0.738885 0.657935 0
vt 0.285498 0.960992 0
vt 0.304804 0.941698 0
vt 0.324098 0.961005 0
vt 0.304791 0.980299 0
vt 0.227604 0.941672 0
vt 0.266204 0.941685 0
vt 0.246897 0.960979 0
vt 0.285511 0.922392 0
vt 0.304818 0.903098 0
vt 0.285524 0.883791 0
vt 0.711591 0.657935 0
vt 0.324111 0.922405 0
vt 0.343405 0.941712 0
vt 0.365378 0.96341 0
vt 0.37069 0.969016 0
vt 0.545574 0.047393 0
vt 0.543039 0.523693 0
vt 0.507463 0.047409 0
vt 0.538097 0.047238 0
vt 0.534783 0.523677 0
vt 0.508217 0.523561 0
vt 0.499908 0.523586 0
vt 0.5 0.047495 0
vt 0.461884 0.047129 0
vt 0.492534 0.047433 0
vt 0.491572 0.523612 0
vt 0.465254 0.523637 0
vt 0.706132 0.63064 0
vt 0.706132 0.657935 0
vt 0.224952 0.982705 0
vt 0.346028 0.982747 0
vt 0.342065 0.986707 0
vt 0.461712 0.040442 0
vt 0.266191 0.980285 0
vt 0.228913 0.986668 0
vt 0.538266 0.040547 0
vt 0.507414 0.040754 0
vt 0.492583 0.04077 0
vt 0.219593 0.988264 0
vt 0.351383 0.988309 0

# 114 vertex normals
vn 0.707107 0.707107 0
vn 0.724909 0.688807 0.00725864
vn 0.997725 0.0109914 0.0665149
vn 0.99994 0.0109883 0
vn -0.196104 0.0108947 -0.980523
vn -0.0663195 0.0773729 -0.994794
vn 0.681799 0.265144 -0.681799
vn 0.196104 0.0108947 -0.980523
vn 0.994794 0.0773729 0.0663195
vn 0.99846 0.05547 0
vn 0 -1 0
vn 0.707107 -0.707107 0
vn 0 1 0
vn 0.57735 -0.57735 -0.57735
vn 0 -0.707107 -0.707107
vn 0 0.406348 -0.913718
vn 0.765776 0.410208 -0.495294
vn 0.913765 0.406244 0
vn 0.914021 0.405667 0
vn 0.707107 -0.707107 0
vn 0.950954 0.309331 0
vn 0 0.05547 -0.99846
vn 0 -0.707107 -0.707107
vn 0 0.406139 -0.913812
vn 0 0.405785 -0.913969
vn -0.00725585 0.688814 -0.724902
vn 0 0.707107 -0.707107
vn 0 0.0109883 -0.99994
vn -0.0665149 0.0109914 -0.997725
vn 0.196116 -5.67868e-05 -0.980581
vn -0.196111 8.08157e-05 -0.980582
vn 0.707023 0.0153657 -0.707023
vn 0.980581 8.08176e-05 0.196116
vn 0.980582 -5.67855e-05 -0.196111
vn 0.980522 0.0108947 -0.196104
vn 0.980522 0.0108947 0.196104
vn 0.768051 0.639883 -0.0254426
vn 0.0254426 0.639883 -0.768051
vn 0.408248 0.816497 -0.408248
vn -0.997725 0.0109914 0.0665149
vn -0.724909 0.688807 0.00725864
vn -0.707107 0.707107 0
vn -0.99994 0.0109883 0
vn -0.681799 0.265144 -0.681799
vn 0.0663195 0.0773729 -0.994794
vn -0.994794 0.0773729 0.0663195
vn -0.99846 0.05547 0
vn -0.707107 -0.707107 0
vn -0.57735 -0.57735 -0.57735
vn -0.765776 0.410208 -0.495294
vn -0.913765 0.406243 0
vn -0.914021 0.405667 0
vn -0.950954 0.309331 0
vn -0.707107 -0.707107 0
vn 0.00725584 0.688814 -0.724902
vn 0.0665149 0.0109914 -0.997725
vn 0.196111 8.08157e-05 -0.980582
vn -0.196116 -5.67868e-05 -0.980581
vn -0.707023 0.0153657 -0.707023
vn -0.980522 0.0108947 -0.196104
vn -0.980582 -5.67855e-05 -0.196111
vn -0.980581 8.08176e-05 0.196116
vn -0.980522 0.0108947 0.196104
vn -0.768051 0.639883 -0.0254426
vn -0.0254426 0.639883 -0.768051
vn -0.408248 0.816497 -0.408248
vn 0.997725 0.0109914 -0.0665149
vn 0.724909 0.688807 -0.00725864
vn 0.681799 0.265144 0.681799
vn -0.0663195 0.0773729 0.994794
vn -0.196104 0.0108947 0.980523
vn 0.196104 0.0108947 0.980523
vn 0.994794 0.0773729 -0.0663195
vn 0 0.406348 0.913718
vn 0 -0.707107 0.707107
vn 0.57735 -0.57735 0.57735
vn 0.765776 0.410208 0.495294
vn 0.913765 0.406244 0
vn 0.950954 0.309331 0
vn 0 0.05547 0.99846
vn 0 0.406139 0.913812
vn 0 -0.707107 0.707107
vn 0 0.405785 0.913969
vn 0 0.0109883 0.99994
vn 0 0.707107 0.707107
vn -0.00725584 0.688814 0.724902
vn -0.0665149 0.0109914 0.997725
vn -0.196111 8.08157e-05 0.980582
vn 0.196116 -5.67868e-05 0.980581
vn 0.707023 0.0153657 0.707023
vn 0.980582 -5.67855e-05 0.196111
vn 0.980581 8.08176e-05 -0.196116
vn 0.768051 0.639883 0.0254426
vn 0.0254426 0.639883 0.768051
vn 0.408248 0.816497 0.408248
vn -0.724909 0.688807 -0.00725864
vn -0.997725 0.0109914 -0.0665149
vn 0.0663195 0.0773729 0.994794
vn -0.681799 0.265144 0.681799
vn -0.994794 0.0773729 -0.0663195
vn -0.57735 -0.57735 0.57735
vn -0.765776 0.410208 0.495294
vn -0.913765 0.406244 0
vn -0.950954 0.309331 0
vn 0.00725585 0.688814 0.724902
vn 0.0665149 0.0109914 0.997725
vn -0.196116 -5.67868e-05 0.980581
vn 0.196111 8.08157e-05 0.980582
vn -0.707023 0.0153657 0.707023
vn -0.980581 8.08176e-05 -0.196116
vn -0.980582 -5.67855e-05 0.196111
vn -0.768051 0.639883 0.0254426
vn -0.0254426 0.639883 0.768051
vn -0.408248 0.816497 0.408248

# Mesh 'Low_Cube.002_Low_Cube.002' with 336 faces
g Low_Cube.002_Low_Cube.002
usemtl DefaultMaterial
f  1/1/1 2/2/2 3/3/3
f  3/3/3 4/4/4 1/1/1
f  5/5/5 6/6/6 7/7/7
f  7/7/7 8/8/8 5/5/5
f  4/9/4 3/10/3 9/11/9
f  9/11/9 10/12/10 4/9/4
f  11/13/11 12/14/11 13/15/12
f  13/15/12 14/16/12 11/13/11
f  15/17/13 16/18/13 17/19/13
f  17/19/13 18/20/13 15/17/13
f  19/21/14 20/22/15 21/23/16
f  21/23/16 22/24/17 19/21/14
f  14/16/12 13/15/12 23/25/18
f  23/25/18 24/26/19 14/16/12
f  13/15/12 25/27/20 26/28/21
f  26/28/21 23/25/18 13/15/12
f  16/18/13 6/6/6 27/29/22
f  27/29/22 17/19/13 16/18/13
f  12/14/11 28/30/11 25/27/20
f  25/27/20 13/15/12 12/14/11
f  29/31/11 30/32/11 31/33/11
f  31/33/11 32/34/11 29/31/11
f  9/35/9 7/7/7 6/6/6
f  6/6/6 16/18/13 9/35/9
f  33/36/23 34/37/23 35/38/24
f  35/38/24 36/39/25 33/36/23
f  10/40/10 9/35/9 16/18/13
f  16/18/13 15/17/13 10/40/10
f  37/41/11 29/31/11 32/34/11
f  32/34/11 38/42/11 37/41/11
f  39/43/26 40/44/27 41/45/28
f  41/45/28 42/46/29 39/43/26
f  42/47/29 41/48/28 27/49/22
f  27/49/22 6/50/6 42/47/29
f  43/51/30 44/52/31 5/53/5
f  5/53/5 8/54/8 43/51/30
f  8/54/8 7/55/7 45/56/32
f  45/56/32 43/51/30 8/54/8
f  44/52/31 42/47/29 6/50/6
f  6/50/6 5/53/5 44/52/31
f  46/57/33 47/58/34 48/59/35
f  48/59/35 49/60/36 46/57/33
f  47/58/34 45/61/32 7/62/7
f  7/62/7 48/59/35 47/58/34
f  49/60/36 9/11/9 3/10/3
f  3/10/3 46/57/33 49/60/36
f  48/63/35 7/7/7 9/35/9
f  9/35/9 49/64/36 48/63/35
f  36/39/25 35/38/24 40/44/27
f  40/44/27 39/43/26 36/39/25
f  23/25/18 26/28/21 50/65/37
f  50/65/37 2/2/2 23/25/18
f  22/24/17 21/23/16 51/66/38
f  51/66/38 52/67/39 22/24/17
f  24/26/19 23/25/18 2/2/2
f  2/2/2 1/1/1 24/26/19
f  3/10/3 2/68/2 46/57/33
f  26/28/21 22/69/17 52/70/39
f  52/70/39 50/65/37 26/28/21
f  30/32/11 34/37/23 33/36/23
f  33/36/23 31/33/11 30/32/11
f  28/30/11 20/22/15 19/21/14
f  19/21/14 25/27/20 28/30/11
f  25/27/20 19/21/14 22/69/17
f  22/69/17 26/28/21 25/27/20
f  31/33/11 33/36/23 20/22/15
f  20/22/15 28/30/11 31/33/11
f  21/23/16 36/39/25 39/43/26
f  39/43/26 51/66/38 21/23/16
f  32/34/11 31/33/11 28/30/11
f  28/30/11 12/14/11 32/34/11
f  20/22/15 33/36/23 36/39/25
f  36/39/25 21/23/16 20/22/15
f  38/42/11 32/34/11 12/14/11
f  12/14/11 11/13/11 38/42/11
f  44/52/31 39/71/26 42/47/29
f  44/52/31 43/51/30 51/72/38
f  51/72/38 39/71/26 44/52/31
f  47/58/34 46/57/33 2/68/2
f  2/68/2 50/73/37 47/58/34
f  47/58/34 50/73/37 45/61/32
f  43/51/30 45/56/32 51/72/38
f  50/65/37 52/70/39 45/74/32
f  51/66/38 45/75/32 52/67/39
f  53/76/40 54/77/41 55/78/42
f  55/78/42 56/79/43 53/76/40
f  57/80/44 58/81/45 59/82/8
f  59/82/8 60/83/5 57/80/44
f  61/84/46 53/85/40 56/86/43
f  56/86/43 62/87/47 61/84/46
f  63/88/48 64/89/11 65/90/11
f  65/90/11 66/91/48 63/88/48
f  17/19/13 67/92/13 68/93/13
f  68/93/13 18/20/13 17/19/13
f  69/94/16 70/95/15 71/96/49
f  71/96/49 72/97/50 69/94/16
f  73/98/51 63/88/48 66/91/48
f  66/91/48 74/99/52 73/98/51
f  75/100/53 76/101/54 63/88/48
f  63/88/48 73/98/51 75/100/53
f  27/29/22 58/81/45 67/92/13
f  67/92/13 17/19/13 27/29/22
f  76/101/54 77/102/11 64/89/11
f  64/89/11 63/88/48 76/101/54
f  78/103/11 30/32/11 29/31/11
f  29/31/11 79/104/11 78/103/11
f  58/81/45 57/80/44 61/105/46
f  61/105/46 67/92/13 58/81/45
f  35/38/24 34/37/23 80/106/23
f  80/106/23 81/107/25 35/38/24
f  67/92/13 61/105/46 62/108/47
f  62/108/47 68/93/13 67/92/13
f  79/104/11 29/31/11 37/41/11
f  37/41/11 82/109/11 79/104/11
f  41/45/28 40/44/27 83/110/55
f  83/110/55 84/111/56 41/45/28
f  27/49/22 41/48/28 84/112/56
f  84/112/56 58/113/45 27/49/22
f  59/114/8 85/115/57 86/116/58
f  86/116/58 60/117/5 59/114/8
f  87/118/59 57/119/44 60/117/5
f  60/117/5 86/116/58 87/118/59
f  58/113/45 84/112/56 85/115/57
f  85/115/57 59/114/8 58/113/45
f  88/120/60 89/121/61 90/122/62
f  90/122/62 91/123/63 88/120/60
f  57/119/44 87/118/59 89/121/61
f  89/121/61 88/120/60 57/119/44
f  53/85/40 61/84/46 91/123/63
f  91/123/63 90/122/62 53/85/40
f  61/105/46 57/80/44 88/124/60
f  88/124/60 91/125/63 61/105/46
f  40/44/27 35/38/24 81/107/25
f  81/107/25 83/110/55 40/44/27
f  92/126/64 75/100/53 73/98/51
f  73/98/51 54/77/41 92/126/64
f  93/127/65 69/94/16 72/97/50
f  72/97/50 94/128/66 93/127/65
f  54/77/41 73/98/51 74/99/52
f  74/99/52 55/78/42 54/77/41
f  53/85/40 90/122/62 54/129/41
f  94/130/66 72/131/50 75/100/53
f  75/100/53 92/126/64 94/130/66
f  80/106/23 34/37/23 30/32/11
f  30/32/11 78/103/11 80/106/23
f  71/96/49 70/95/15 77/102/11
f  77/102/11 76/101/54 71/96/49
f  72/131/50 71/96/49 76/101/54
f  76/101/54 75/100/53 72/131/50
f  70/95/15 80/106/23 78/103/11
f  78/103/11 77/102/11 70/95/15
f  83/110/55 81/107/25 69/94/16
f  69/94/16 93/127/65 83/110/55
f  77/102/11 78/103/11 79/104/11
f  79/104/11 64/89/11 77/102/11
f  81/107/25 80/106/23 70/95/15
f  70/95/15 69/94/16 81/107/25
f  64/89/11 79/104/11 82/109/11
f  82/109/11 65/90/11 64/89/11
f  85/115/57 84/112/56 83/132/55
f  93/133/65 86/116/58 85/115/57
f  85/115/57 83/132/55 93/133/65
f  54/129/41 90/122/62 89/121/61
f  89/121/61 92/134/64 54/129/41
f  89/121/61 87/118/59 92/134/64
f  86/116/58 93/133/65 87/118/59
f  92/126/64 87/135/59 94/130/66
f  93/127/65 94/128/66 87/136/59
f  95/137/67 96/138/68 1/1/1
f  1/1/1 4/4/4 95/137/67
f  97/139/69 98/140/70 99/141/71
f  99/141/71 100/142/72 97/139/69
f  101/143/73 95/144/67 4/9/4
f  4/9/4 10/12/10 101/143/73
f  102/145/12 103/146/11 11/13/11
f  11/13/11 14/16/12 102/145/12
f  104/147/13 105/148/13 15/17/13
f  15/17/13 18/20/13 104/147/13
f  106/149/74 107/150/75 108/151/76
f  108/151/76 109/152/77 106/149/74
f  110/153/78 102/145/12 14/16/12
f  14/16/12 24/26/19 110/153/78
f  111/154/79 112/155/20 102/145/12
f  102/145/12 110/153/78 111/154/79
f  113/156/80 98/140/70 105/148/13
f  105/148/13 104/147/13 113/156/80
f  112/155/20 114/157/11 103/146/11
f  103/146/11 102/145/12 112/155/20
f  115/158/11 116/159/11 117/160/11
f  117/160/11 118/161/11 115/158/11
f  98/140/70 97/139/69 101/162/73
f  101/162/73 105/148/13 98/140/70
f  119/163/81 120/164/82 121/165/82
f  121/165/82 122/166/83 119/163/81
f  105/148/13 101/162/73 10/40/10
f  10/40/10 15/17/13 105/148/13
f  118/161/11 117/160/11 37/41/11
f  37/41/11 38/42/11 118/161/11
f  123/167/84 124/168/85 125/169/86
f  125/169/86 126/170/87 123/167/84
f  113/171/80 123/172/84 126/173/87
f  126/173/87 98/174/70 113/171/80
f  99/175/71 127/176/88 128/177/89
f  128/177/89 100/178/72 99/175/71
f  129/179/90 97/180/69 100/178/72
f  100/178/72 128/177/89 129/179/90
f  98/174/70 126/173/87 127/176/88
f  127/176/88 99/175/71 98/174/70
f  130/181/36 131/182/91 132/183/92
f  132/183/92 133/184/35 130/181/36
f  97/180/69 129/179/90 131/182/91
f  131/182/91 130/181/36 97/180/69
f  95/144/67 101/143/73 133/184/35
f  133/184/35 132/183/92 95/144/67
f  101/162/73 97/139/69 130/185/36
f  130/185/36 133/186/35 101/162/73
f  124/168/85 119/163/81 122/166/83
f  122/166/83 125/169/86 124/168/85
f  134/187/93 111/154/79 110/153/78
f  110/153/78 96/138/68 134/187/93
f  135/188/94 106/149/74 109/152/77
f  109/152/77 136/189/95 135/188/94
f  96/138/68 110/153/78 24/26/19
f  24/26/19 1/1/1 96/138/68
f  95/144/67 132/183/92 96/190/68
f  136/191/95 109/192/77 111/154/79
f  111/154/79 134/187/93 136/191/95
f  121/165/82 120/164/82 116/159/11
f  116/159/11 115/158/11 121/165/82
f  108/151/76 107/150/75 114/157/11
f  114/157/11 112/155/20 108/151/76
f  109/192/77 108/151/76 112/155/20
f  112/155/20 111/154/79 109/192/77
f  107/150/75 121/165/82 115/158/11
f  115/158/11 114/157/11 107/150/75
f  125/169/86 122/166/83 106/149/74
f  106/149/74 135/188/94 125/169/86
f  114/157/11 115/158/11 118/161/11
f  118/161/11 103/146/11 114/157/11
f  122/166/83 121/165/82 107/150/75
f  107/150/75 106/149/74 122/166/83
f  103/146/11 118/161/11 38/42/11
f  38/42/11 11/13/11 103/146/11
f  127/176/88 126/173/87 125/193/86
f  135/194/94 128/177/89 127/176/88
f  127/176/88 125/193/86 135/194/94
f  96/190/68 132/183/92 131/182/91
f  131/182/91 134/195/93 96/190/68
f  131/182/91 129/179/90 134/195/93
f  128/177/89 135/194/94 129/179/90
f  134/187/93 129/196/90 136/191/95
f  135/188/94 136/189/95 129/197/90
f  55/78/42 137/198/96 138/199/97
f  138/199/97 56/79/43 55/78/42
f  139/200/72 140/201/98 141/202/99
f  141/202/99 142/203/71 139/200/72
f  56/86/43 138/204/97 143/205/100
f  143/205/100 62/87/47 56/86/43
f  65/90/11 144/206/11 145/207/48
f  145/207/48 66/91/48 65/90/11
f  68/93/13 146/208/13 104/147/13
f  104/147/13 18/20/13 68/93/13
f  147/209/101 148/210/75 149/211/74
f  149/211/74 150/212/102 147/209/101
f  66/91/48 145/207/48 151/213/103
f  151/213/103 74/99/52 66/91/48
f  145/207/48 152/214/54 153/215/104
f  153/215/104 151/213/103 145/207/48
f  146/208/13 140/201/98 113/156/80
f  113/156/80 104/147/13 146/208/13
f  144/206/11 154/216/11 152/214/54
f  152/214/54 145/207/48 144/206/11
f  117/160/11 116/159/11 155/217/11
f  155/217/11 156/218/11 117/160/11
f  143/219/100 141/202/99 140/201/98
f  140/201/98 146/208/13 143/219/100
f  157/220/82 120/164/82 119/163/81
f  119/163/81 158/221/83 157/220/82
f  62/108/47 143/219/100 146/208/13
f  146/208/13 68/93/13 62/108/47
f  37/41/11 117/160/11 156/218/11
f  156/218/11 82/109/11 37/41/11
f  159/222/105 124/168/85 123/167/84
f  123/167/84 160/223/106 159/222/105
f  160/224/106 123/172/84 113/171/80
f  113/171/80 140/225/98 160/224/106
f  161/226/107 162/227/108 139/228/72
f  139/228/72 142/229/71 161/226/107
f  142/229/71 141/230/99 163/231/109
f  163/231/109 161/226/107 142/229/71
f  162/227/108 160/224/106 140/225/98
f  140/225/98 139/228/72 162/227/108
f  164/232/110 165/233/111 166/234/63
f  166/234/63 167/235/60 164/232/110
f  165/233/111 163/231/109 141/230/99
f  141/230/99 166/234/63 165/233/111
f  167/235/60 143/205/100 138/204/97
f  138/204/97 164/232/110 167/235/60
f  166/236/63 141/202/99 143/219/100
f  143/219/100 167/237/60 166/236/63
f  158/221/83 119/163/81 124/168/85
f  124/168/85 159/222/105 158/221/83
f  151/213/103 153/215/104 168/238/112
f  168/238/112 137/198/96 151/213/103
f  150/212/102 149/211/74 169/239/113
f  169/239/113 170/240/114 150/212/102
f  74/99/52 151/213/103 137/198/96
f  137/198/96 55/78/42 74/99/52
f  138/204/97 137/241/96 164/232/110
f  153/215/104 150/242/102 170/243/114
f  170/243/114 168/238/112 153/215/104
f  116/159/11 120/164/82 157/220/82
f  157/220/82 155/217/11 116/159/11
f  154/216/11 148/210/75 147/209/101
f  147/209/101 152/214/54 154/216/11
f  152/214/54 147/209/101 150/242/102
f  150/242/102 153/215/104 152/214/54
f  155/217/11 157/220/82 148/210/75
f  148/210/75 154/216/11 155/217/11
f  149/211/74 158/221/83 159/222/105
f  159/222/105 169/239/113 149/211/74
f  156/218/11 155/217/11 154/216/11
f  154/216/11 144/206/11 156/218/11
f  148/210/75 157/220/82 158/221/83
f  158/221/83 149/211/74 148/210/75
f  82/109/11 156/218/11 144/206/11
f  144/206/11 65/90/11 82/109/11
f  162/227/108 159/244/105 160/224/106
f  162/227/108 161/226/107 169/245/113
f  169/245/113 159/244/105 162/227/108
f  165/233/111 164/232/110 137/241/96
f  137/241/96 168/246/112 165/233/111
f  165/233/111 168/246/112 163/231/109
f  161/226/107 163/231/109 169/245/113
f  168/238/112 170/243/114 163/247/109
f  169/239/113 163/248/109 170/240/114

