# File produced by Open Asset Import Library (http://www.assimp.sf.net)
# (assimp v3.1.77322876)

mtllib Torch_Holder_shabby.mtl

# 107 vertex positions
v  0.075 0.7 0.1
v  0.125 0.6 0.1
v  0.125 0.6 0.06
v  0.15 0.4 0.06
v  -0.15 0.4 0.06
v  -0.125 0.6 0.06
v  0.01912 0.939287 0.04
v  0.01912 0.939287 0.1
v  -0.008596 0.927806 0.1
v  -0.008596 0.927806 0.04
v  0.15 0.6 0.06
v  -0.15 0.6 0.06
v  -0.125 0.6 0.1
v  0.125 0.6 0.106927
v  0.075 0.7 0.14
v  -0.075 0.7 0.1
v  -0.075 0.7 0.14
v  -0.125 0.6 0.106927
v  -0.075 0.6 0.25134
v  -0.15 0.6 0.2
v  -0.075 0.6 0.3
v  -0.15 0.5 0.2
v  -0.15 0.4 0.12
v  -0.075 0.427681 0.217597
v  -0.075 0.5 0.3
v  0.075 0.5 0.3
v  0.075 0.427681 0.217597
v  0.15 0.4 0.12
v  0.15 0.5 0.2
v  0.15 0.6 0.2
v  0.075 0.6 0.25134
v  0.075 0.6 0.3
v  0 0.6 0.281881
v  -0.075 0.4 0.15
v  0.075 0.4 0.15
v  0.075 0.460218 0.2
v  0.075 0.460218 0.1
v  -0.075 0.460218 0.1
v  -0.075 0.460218 0.2
v  -0.020329 0.849116 0.04
v  -0.020329 0.849116 0.1
v  0.000884 0.870329 0.1
v  0.000884 0.870329 0.04
v  0.075 1.64183 0.411049
v  0.075 1.65131 0.372189
v  -0.075 1.65131 0.372189
v  -0.075 1.64183 0.411049
v  -0.075 1.36639 0.299459
v  -0.075 1.35361 0.335776
v  0.075 1.35361 0.335776
v  0.075 1.36639 0.299459
v  -0.075 1.23574 0.270518
v  0.075 1.23574 0.270518
v  0.075 1.24426 0.232973
v  -0.075 1.24426 0.232973
v  0.090194 1.27105 0.297072
v  0.090194 1.33448 0.331604
v  -0.079089 1.33803 0.335708
v  -0.090194 1.33448 0.331604
v  0.080524 1.33803 0.335708
v  0.080524 1.2623 0.294282
v  -0.090194 1.27105 0.297072
v  -0.079089 1.2623 0.294282
v  -0.075 1 0.14
v  0.075 1 0.14
v  -0.075 1 0.1
v  0.075 1 0.1
v  -0.072543 1.22268 0.373389
v  -0.072543 1.26329 0.390336
v  0.082682 1.29493 0.410698
v  0.082682 1.26321 0.393433
v  -0.072543 1.29841 0.414816
v  0.073013 1.22274 0.373376
v  0.082682 1.2315 0.376167
v  -0.056815 1.27766 0.448138
v  -0.083649 1.29486 0.410712
v  -0.083649 1.26314 0.393446
v  -0.076815 1.2579 0.40436
v  0.047962 1.2056 0.410791
v  0.057631 1.21436 0.413582
v  -0.056815 1.21423 0.413606
v  -0.083649 1.23143 0.37618
v  -0.04571 1.20548 0.410815
v  0.067962 1.25817 0.401225
v  0.073013 1.26335 0.390323
v  0.073013 1.29847 0.414802
v  -0.06571 1.25805 0.40125
v  -0.04571 1.28121 0.452241
v  0.077631 1.25803 0.404335
v  0.047962 1.28133 0.452217
v  0.057631 1.27779 0.448113
v  -0.017531 0.743419 0.1
v  0.011813 0.737182 0.1
v  0.008596 0.964694 0.1
v  -0.01912 0.953213 0.1
v  -0.011814 0.770318 0.1
v  0.020329 0.850884 0.1
v  -0.000884 0.829671 0.04
v  -0.000884 0.829671 0.1
v  0.011813 0.737182 0.04
v  -0.017531 0.743419 0.04
v  0.020329 0.850884 0.04
v  -0.01912 0.953213 0.04
v  0.008596 0.964694 0.04
v  -0.011814 0.770318 0.04
v  0.017531 0.764081 0.1
v  0.017531 0.764081 0.04

# 220 UV coordinates
vt 0.805151 0.55762 0
vt 0.742178 0.493735 0
vt 0.765034 0.471205 0
vt 0.744975 0.310735 0
vt 0.985679 0.310735 0
vt 0.965621 0.471205 0
vt 0.96856 0.647292 0
vt 0.920419 0.647275 0
vt 0.920427 0.623205 0
vt 0.968568 0.623222 0
vt 0.744975 0.471205 0
vt 0.6979 0.459728 0
vt 0.717959 0.491822 0
vt 0.6979 0.491822 0
vt 0.477255 0.491822 0
vt 0.497314 0.459728 0
vt 0.497314 0.491822 0
vt 0.738219 0.497637 0
vt 0.782295 0.58015 0
vt 0.925503 0.55762 0
vt 0.94836 0.58015 0
vt 0.988477 0.493735 0
vt 0.992435 0.497637 0
vt 0.537431 0.338302 0
vt 0.477255 0.379494 0
vt 0.537431 0.299259 0
vt 0.457293 0.15872 0
vt 0.468835 0.05662 0
vt 0.537431 0.131057 0
vt 0.537431 0.219025 0
vt 0.657783 0.219025 0
vt 0.657783 0.131058 0
vt 0.726379 0.05662 0
vt 0.737922 0.158721 0
vt 0.717959 0.379494 0
vt 0.657783 0.338302 0
vt 0.657783 0.299259 0
vt 0.597607 0.313797 0
vt 0.537431 0.07245 0
vt 0.657783 0.07245 0
vt 0.985679 0.471205 0
vt 0.718647 0.050175 0
vt 0.758077 0.219025 0
vt 0.758076 0.299259 0
vt 0.437138 0.219025 0
vt 0.437138 0.299259 0
vt 0.476568 0.050175 0
vt 0.477255 0.000239 0
vt 0.477255 0.04838 0
vt 0.870405 0.299259 0
vt 0.32481 0.299259 0
vt 0.32481 0.13879 0
vt 0.37295 0.13879 0
vt 0.717959 0.000239 0
vt 0.717959 0.04838 0
vt 0.822264 0.13879 0
vt 0.870405 0.13879 0
vt 0.627493 0.453877 0
vt 0.463608 0.693302 0
vt 0.463608 0.613067 0
vt 0.58396 0.613067 0
vt 0.58396 0.693302 0
vt 0.423491 0.500913 0
vt 0.624078 0.500913 0
vt 0.567721 0.453877 0
vt 0.703073 0.613067 0
vt 0.693677 0.740604 0
vt 0.353892 0.740604 0
vt 0.344496 0.613067 0
vt 0.144661 0.005798 0
vt 0.345248 0.005798 0
vt 0.305131 0.090306 0
vt 0.184779 0.090306 0
vt 0.882053 0.696976 0
vt 0.833912 0.696977 0
vt 0.833912 0.672906 0
vt 0.882053 0.672906 0
vt 0.144661 0.000239 0
vt 0.345248 0.000239 0
vt 0.305127 0.901329 0
vt 0.305305 0.933422 0
vt 0.184955 0.934089 0
vt 0.184777 0.901995 0
vt 0.152685 0.901653 0
vt 0.152685 0.665718 0
vt 0.183454 0.662994 0
vt 0.303804 0.662328 0
vt 0.334601 0.664711 0
vt 0.337214 0.900631 0
vt 0.032333 0.901653 0
vt 0.032333 0.665718 0
vt 0.470468 0.966182 0
vt 0.470468 0.858221 0
vt 0.590664 0.858221 0
vt 0.590664 0.966182 0
vt 0.032333 0.554149 0
vt 0.152685 0.554149 0
vt 0.904196 0.788222 0
vt 0.942314 0.745764 0
vt 0.93931 0.857292 0
vt 0.902635 0.846148 0
vt 0.189118 0.651372 0
vt 0.183637 0.643108 0
vt 0.598122 0.955229 0
vt 0.598407 0.886061 0
vt 0.186974 0.599756 0
vt 0.18241 0.562551 0
vt 0.192396 0.589543 0
vt 0.180873 0.346356 0
vt 0.301221 0.3455 0
vt 0.302759 0.561695 0
vt 0.152685 0.33101 0
vt 0.329188 0.329755 0
vt 0.332361 0.552871 0
vt 0.032333 0.33101 0
vt 0.392151 0.888761 0
vt 0.46332 0.886061 0
vt 0.46363 0.955229 0
vt 0.395749 0.924024 0
vt 0.831428 0.8467 0
vt 0.832208 0.817738 0
vt 0.901969 0.883314 0
vt 0.938741 0.872495 0
vt 0.940756 0.984046 0
vt 0.903016 0.94125 0
vt 0.39247 0.95834 0
vt 0.831116 0.778239 0
vt 0.902324 0.777686 0
vt 0.832988 0.788775 0
vt 0.294111 0.589306 0
vt 0.298724 0.598962 0
vt 0.303401 0.642445 0
vt 0.298782 0.650047 0
vt 0.791387 0.880612 0
vt 0.830797 0.882171 0
vt 0.83132 0.911139 0
vt 0.82017 0.910846 0
vt 0.78929 0.78042 0
vt 0.827931 0.779344 0
vt 0.794348 0.789851 0
vt 0.792431 0.938611 0
vt 0.831843 0.940108 0
vt 0.825848 0.949996 0
vt 0.786436 0.948499 0
vt 0.676357 0.924625 0
vt 0.665858 0.92403 0
vt 0.669546 0.888855 0
vt 0.708135 0.891626 0
vt 0.900379 0.854752 0
vt 0.829172 0.855305 0
vt 0.901036 0.952643 0
vt 0.829864 0.951501 0
vt 0.669255 0.958264 0
vt 0.82863 0.872495 0
vt 0.899802 0.873637 0
vt 0.781066 0.940747 0
vt 0.811825 0.906848 0
vt 0.812597 0.916165 0
vt 0.78149 0.879984 0
vt 0.814362 0.821509 0
vt 0.783957 0.787292 0
vt 0.821712 0.817985 0
vt 0.783957 0.849083 0
vt 0.815229 0.813044 0
vt 0.792797 0.848094 0
vt 0.785317 0.87277 0
vt 0.824727 0.87433 0
vt 0.826103 0.853826 0
vt 0.787472 0.85522 0
vt 0.38457 0.92459 0
vt 0.353016 0.960498 0
vt 0.707868 0.960489 0
vt 0.35272 0.89157 0
vt 0.523784 0.823281 0
vt 0.152685 0.090306 0
vt 0.106575 0.125144 0
vt 0.08303 0.120139 0
vt 0.032333 0.090306 0
vt 0.085612 0.302682 0
vt 0.10785 0.293471 0
vt 0.077168 0.282297 0
vt 0.101987 0.146726 0
vt 0.076198 0.211368 0
vt 0.0918 0.22697 0
vt 0.000239 0.090306 0
vt 0.000239 0.33101 0
vt 0.882053 0.719041 0
vt 0.833912 0.719041 0
vt 0.305131 0.33101 0
vt 0.184779 0.33101 0
vt 0.795153 0.651697 0
vt 0.747012 0.651697 0
vt 0.747012 0.627627 0
vt 0.795153 0.627627 0
vt 0.882053 0.650842 0
vt 0.833912 0.650842 0
vt 0.833912 0.626771 0
vt 0.882053 0.626771 0
vt 0.968544 0.693427 0
vt 0.920403 0.69341 0
vt 0.920411 0.66934 0
vt 0.968552 0.669356 0
vt 0.10882 0.209949 0
vt 0.099406 0.273086 0
vt 0.795153 0.697832 0
vt 0.747012 0.697832 0
vt 0.747012 0.673761 0
vt 0.795153 0.673761 0
vt 0.795153 0.719896 0
vt 0.747012 0.719896 0
vt 0.817218 0.627627 0
vt 0.817218 0.651697 0
vt 0.093218 0.194347 0
vt 0.078443 0.141722 0
vt 0.968536 0.715491 0
vt 0.920395 0.715475 0
vt 0.904117 0.626771 0
vt 0.904117 0.650842 0
vt 0.990632 0.623229 0
vt 0.990624 0.6473 0

# 107 vertex normals
vn 0.404792 0.202396 -0.891729
vn -0.236271 0.391807 0.889193
vn 0.0492926 0.160201 -0.985853
vn 0.20304 -0.30456 -0.930601
vn -0.163888 -0.430207 -0.887729
vn -0.0565855 0.127317 -0.990247
vn 0.858707 -0.400209 -0.320086
vn 0.318464 -0.148423 -0.936243
vn -0.0924523 -0.253869 -0.96281
vn -0.324185 -0.890195 -0.32009
vn 0.982987 0.122873 -0.136526
vn -0.944349 0.301667 -0.13116
vn 0.679677 0.452725 0.57713
vn 0.150649 -0.301298 0.941554
vn 0.25737 -0.0476287 0.965138
vn -0.426187 0.213093 -0.879179
vn -0.206381 -0.0750326 0.975591
vn -0.0424918 -0.389298 0.920131
vn 0.60437 0.717055 -0.34723
vn -0.831821 0.490411 0.259944
vn -0.376199 0.376832 0.846447
vn -0.965643 -0.112111 0.234444
vn -0.856826 -0.439187 0.270119
vn -0.19495 -0.816086 0.544057
vn -0.372157 -0.400423 0.837353
vn 0.407768 -0.37434 0.832823
vn 0.136943 -0.824212 0.549474
vn 0.873707 -0.414354 0.254845
vn 0.960816 -0.102945 0.257362
vn 0.8556 0.443237 0.267375
vn -0.665845 0.589274 -0.45761
vn 0.376199 0.376832 0.846447
vn 0 0.581838 -0.813305
vn -0.02457 -0.982568 0.184275
vn 0.02457 -0.982568 0.184275
vn -0.355968 0.704876 -0.613545
vn -0.434488 0.621665 0.651731
vn 0.476648 0.511491 0.714972
vn 0.381198 0.650382 -0.657032
vn -0.946495 0.0411581 -0.320082
vn -0.101567 0.0044166 -0.994819
vn -0.0121123 0.278543 -0.960347
vn -0.0411578 0.946495 -0.320082
vn 0.252937 -0.117464 0.960325
vn 0.255109 0.363065 -0.896161
vn -0.258192 0.362757 -0.895402
vn -0.255998 -0.117366 0.959526
vn -0.25554 0.324528 -0.910703
vn -0.179724 -0.320293 0.930114
vn 0.158497 -0.323814 0.93275
vn 0.232023 0.325551 -0.916614
vn -0.145178 -0.480576 0.864853
vn 0.173928 -0.479823 0.859952
vn 0.253296 0.456625 -0.852839
vn -0.224824 0.45829 -0.859898
vn 0.992955 -0.100824 -0.0622506
vn 0.994842 0.101298 0.00525293
vn 0.979189 0.187067 0.0787093
vn -0.993662 0.107956 0.0313226
vn -0.995775 0.0911331 0.0112291
vn -0.913477 -0.406324 -0.0214536
vn -0.987761 -0.100207 -0.119527
vn 0.989094 -0.141243 -0.0417556
vn -0.256637 -0.228771 0.939043
vn 0.250808 -0.229132 0.940528
vn -0.297123 0.272224 -0.915211
vn 0.31223 0.279232 -0.908043
vn 0.90942 -0.181463 -0.3742
vn 0.990412 0.0708369 -0.118598
vn 0.946605 0.0914839 0.309144
vn 0.992131 -0.0709142 0.103181
vn 0.925166 0.369888 -0.0851473
vn -0.939173 -0.121163 -0.321361
vn 0.949253 -0.288681 0.124832
vn -0.595897 -0.274979 0.754515
vn -0.941864 0.10278 0.319889
vn -0.991215 -0.0579519 0.118892
vn -0.626487 -0.356191 0.693284
vn -0.93497 0.12705 -0.331194
vn 0.666983 -0.450065 0.593781
vn -0.751817 -0.379711 0.539065
vn -0.940183 -0.321727 0.112021
vn 0.601162 -0.327838 0.728784
vn -0.975843 0.0556794 -0.211259
vn -0.992255 0.0498974 -0.113752
vn -0.933727 0.345774 -0.0927061
vn 0.969197 0.176052 -0.172229
vn 0.926295 0.251226 -0.280825
vn 0.717506 -0.297786 0.62969
vn -0.924603 -0.10184 0.367066
vn 0.782779 -0.208281 0.586409
vn -0.52125 -0.371668 -0.76822
vn 0.157373 -0.267051 -0.950746
vn 0.250372 0.687509 -0.681648
vn -0.26627 0.124098 -0.955877
vn -0.188965 0.320661 -0.928153
vn 0.103903 -0.0045182 -0.994577
vn 0.0411578 -0.946495 -0.320082
vn 0.0117065 -0.269213 -0.96301
vn 0.480989 -0.816206 -0.320091
vn -0.77138 -0.550019 -0.320082
vn 0.946495 -0.0411581 -0.320082
vn -0.858707 0.400209 -0.320086
vn 0.324185 0.890194 -0.320091
vn -0.480989 0.816206 -0.320091
vn 0.216285 0.154218 -0.964073
vn 0.771377 0.550016 -0.320094

# Mesh 'low_Cube.002_low_Cube.002' with 210 faces
g low_Cube.002_low_Cube.002
usemtl DefaultMaterial
f  1/1/1 2/2/2 3/3/3
f  4/4/4 5/5/5 6/6/6
f  6/6/6 3/3/3 4/4/4
f  7/7/7 8/8/8 9/9/9
f  9/9/9 10/10/10 7/7/7
f  3/3/3 11/11/11 4/4/4
f  2/12/2 11/13/11 3/14/3
f  12/15/12 13/16/13 6/17/6
f  14/18/14 2/2/2 1/1/1
f  1/1/1 15/19/15 14/18/14
f  1/1/1 3/3/3 6/6/6
f  6/6/6 16/20/16 1/1/1
f  17/21/17 16/20/16 13/22/13
f  13/22/13 18/23/18 17/21/17
f  6/6/6 13/22/13 16/20/16
f  19/24/19 20/25/20 21/26/21
f  22/27/22 23/28/23 24/29/24
f  24/29/24 25/30/25 22/27/22
f  26/31/26 27/32/27 28/33/28
f  28/33/28 29/34/29 26/31/26
f  30/35/30 31/36/31 32/37/32
f  21/26/21 33/38/33 19/24/19
f  24/29/24 34/39/34 35/40/35
f  35/40/35 27/32/27 24/29/24
f  5/5/5 12/41/12 6/6/6
f  24/29/24 27/32/27 26/31/26
f  26/31/26 25/30/25 24/29/24
f  25/30/25 26/31/26 32/37/32
f  32/37/32 21/26/21 25/30/25
f  35/40/35 28/42/28 27/32/27
f  26/31/26 29/43/29 30/44/30
f  30/44/30 32/37/32 26/31/26
f  22/45/22 25/30/25 21/26/21
f  21/26/21 20/46/20 22/45/22
f  31/36/31 33/38/33 32/37/32
f  34/39/34 24/29/24 23/47/23
f  5/48/5 34/39/34 23/49/23
f  11/50/11 30/44/30 29/43/29
f  12/51/12 5/52/5 23/53/23
f  23/53/23 22/45/22 12/51/12
f  4/54/4 28/55/28 35/40/35
f  28/56/28 4/57/4 11/50/11
f  11/50/11 29/43/29 28/56/28
f  34/39/34 5/48/5 4/54/4
f  4/54/4 35/40/35 34/39/34
f  33/38/33 31/36/31 36/58/36
f  30/35/30 11/13/11 2/12/2
f  2/12/2 31/36/31 30/35/30
f  12/51/12 22/45/22 20/46/20
f  19/24/19 13/16/13 12/15/12
f  12/15/12 20/25/20 19/24/19
f  36/59/36 37/60/37 38/61/38
f  38/61/38 39/62/39 36/59/36
f  37/60/37 2/63/2 13/64/13
f  13/64/13 38/61/38 37/60/37
f  19/24/19 33/38/33 39/65/39
f  38/61/38 13/66/13 19/67/19
f  19/67/19 39/62/39 38/61/38
f  36/59/36 31/68/31 2/69/2
f  2/69/2 37/60/37 36/59/36
f  18/70/18 14/71/14 15/72/15
f  15/72/15 17/73/17 18/70/18
f  40/74/40 41/75/41 42/76/42
f  42/76/42 43/77/43 40/74/40
f  18/70/18 13/78/13 2/79/2
f  2/79/2 14/71/14 18/70/18
f  44/80/44 45/81/45 46/82/46
f  46/82/46 47/83/47 44/80/44
f  46/84/46 48/85/48 49/86/49
f  49/86/49 47/83/47 46/84/46
f  44/80/44 50/87/50 51/88/51
f  51/88/51 45/89/45 44/80/44
f  45/90/45 51/91/51 48/85/48
f  48/85/48 46/84/46 45/90/45
f  47/83/47 49/86/49 50/87/50
f  50/87/50 44/80/44 47/83/47
f  49/92/49 52/93/52 53/94/53
f  53/94/53 50/95/50 49/92/49
f  51/91/51 54/96/54 55/97/55
f  55/97/55 48/85/48 51/91/51
f  56/98/56 54/99/54 51/100/51
f  51/100/51 57/101/57 56/98/56
f  58/102/58 49/86/49 48/85/48
f  48/85/48 59/103/59 58/102/58
f  60/104/60 50/95/50 53/94/53
f  53/94/53 61/105/61 60/104/60
f  62/106/62 55/97/55 52/107/52
f  52/107/52 63/108/63 62/106/62
f  52/107/52 64/109/64 65/110/65
f  65/110/65 53/111/53 52/107/52
f  55/97/55 66/112/66 64/109/64
f  64/109/64 52/107/52 55/97/55
f  53/111/53 65/110/65 67/113/67
f  67/113/67 54/114/54 53/111/53
f  54/96/54 67/115/67 66/112/66
f  66/112/66 55/97/55 54/96/54
f  68/116/68 63/117/63 58/118/58
f  58/118/58 69/119/69 68/116/68
f  57/101/57 70/120/70 71/121/71
f  59/122/59 48/123/48 55/124/55
f  55/124/55 62/125/62 59/122/59
f  63/117/63 52/93/52 49/92/49
f  49/92/49 58/118/58 63/117/63
f  58/118/58 72/126/72 69/119/69
f  73/127/73 61/128/61 56/98/56
f  56/98/56 74/129/74 73/127/73
f  61/130/61 53/111/53 54/114/54
f  54/114/54 56/131/56 61/130/61
f  57/132/57 51/88/51 50/87/50
f  50/87/50 60/133/60 57/132/57
f  75/134/75 76/135/76 77/136/77
f  77/136/77 78/137/78 75/134/75
f  79/138/79 73/139/73 74/129/74
f  74/129/74 80/140/80 79/138/79
f  81/141/81 82/142/82 68/143/68
f  68/143/68 83/144/83 81/141/81
f  84/145/84 85/146/85 73/147/73
f  73/147/73 79/148/79 84/145/84
f  74/129/74 56/98/56 57/101/57
f  57/101/57 71/121/71 74/129/74
f  70/120/70 57/101/57 60/149/60
f  60/149/60 86/150/86 70/120/70
f  82/142/82 62/125/62 63/151/63
f  63/151/63 68/152/68 82/142/82
f  60/104/60 85/146/85 86/153/86
f  59/122/59 77/136/77 76/135/76
f  85/146/85 60/104/60 61/105/61
f  61/105/61 73/147/73 85/146/85
f  77/136/77 59/122/59 62/125/62
f  62/125/62 82/142/82 77/136/77
f  72/154/72 58/155/58 59/122/59
f  59/122/59 76/135/76 72/154/72
f  78/137/78 81/141/81 83/156/83
f  83/156/83 87/157/87 78/137/78
f  75/134/75 78/137/78 87/158/87
f  87/158/87 88/159/88 75/134/75
f  84/160/84 79/161/79 80/140/80
f  80/140/80 89/162/89 84/160/84
f  90/163/90 84/164/84 89/162/89
f  89/162/89 91/165/91 90/163/90
f  89/162/89 71/121/71 70/120/70
f  70/120/70 91/165/91 89/162/89
f  78/137/78 77/136/77 82/142/82
f  82/142/82 81/141/81 78/137/78
f  80/140/80 74/129/74 71/121/71
f  71/121/71 89/162/89 80/140/80
f  88/166/88 72/167/72 76/135/76
f  76/135/76 75/134/75 88/166/88
f  91/165/91 70/120/70 86/168/86
f  86/168/86 90/169/90 91/165/91
f  87/170/87 69/119/69 72/126/72
f  72/126/72 88/171/88 87/170/87
f  90/172/90 86/153/86 85/146/85
f  85/146/85 84/145/84 90/172/90
f  83/173/83 68/116/68 69/119/69
f  69/119/69 87/170/87 83/173/83
f  39/62/39 33/174/33 36/59/36
f  33/38/33 21/26/21 32/37/32
f  16/175/16 92/176/92 93/177/93
f  93/177/93 1/178/1 16/175/16
f  67/115/67 94/179/94 95/180/95
f  95/180/95 66/112/66 67/115/67
f  8/181/8 94/179/94 67/115/67
f  96/182/96 92/176/92 16/175/16
f  97/183/97 42/184/42 67/115/67
f  97/183/97 67/115/67 1/178/1
f  15/185/15 1/178/1 67/115/67
f  67/115/67 65/186/65 15/185/15
f  98/187/98 99/188/99 41/75/41
f  41/75/41 40/74/40 98/187/98
f  17/73/17 15/72/15 65/189/65
f  65/189/65 64/190/64 17/73/17
f  100/191/100 93/192/93 92/193/92
f  92/193/92 101/194/101 100/191/100
f  102/195/102 97/196/97 99/197/99
f  99/197/99 98/198/98 102/195/102
f  103/199/103 95/200/95 94/201/94
f  94/201/94 104/202/104 103/199/103
f  42/184/42 41/203/41 9/204/9
f  9/204/9 8/181/8 42/184/42
f  43/77/43 42/76/42 97/196/97
f  97/196/97 102/195/102 43/77/43
f  42/184/42 8/181/8 67/115/67
f  105/205/105 96/206/96 106/207/106
f  106/207/106 107/208/107 105/205/105
f  95/180/95 9/204/9 66/112/66
f  101/209/101 92/210/92 96/206/96
f  96/206/96 105/205/105 101/209/101
f  100/191/100 101/194/101 105/211/105
f  105/211/105 107/212/107 100/191/100
f  99/213/99 96/182/96 16/175/16
f  93/177/93 106/214/106 1/178/1
f  104/202/104 94/201/94 8/8/8
f  8/8/8 7/7/7 104/202/104
f  10/215/10 9/216/9 95/200/95
f  95/200/95 103/199/103 10/215/10
f  41/203/41 99/213/99 16/175/16
f  41/203/41 16/175/16 66/112/66
f  64/190/64 66/112/66 16/175/16
f  16/175/16 17/73/17 64/190/64
f  106/214/106 96/182/96 99/213/99
f  99/213/99 97/183/97 106/214/106
f  107/208/107 106/207/106 93/192/93
f  93/192/93 100/191/100 107/208/107
f  106/214/106 97/183/97 1/178/1
f  102/195/102 98/198/98 40/217/40
f  40/217/40 43/218/43 102/195/102
f  7/7/7 10/10/10 103/219/103
f  103/219/103 104/220/104 7/7/7
f  9/204/9 41/203/41 66/112/66

