# File produced by Open Asset Import Library (http://www.assimp.sf.net)
# (assimp v3.1.193236683)

mtllib Wall_no_foundation_left.mtl

# 32 vertex positions
v  1.1 2 0
v  1.1 1.8 0
v  2 1.8 0
v  2 2 0
v  1.1 0.4 0
v  1.1 0.2 0
v  2 0.2 0
v  2 0.4 0
v  1.1 0.6 0
v  2 0.6 0
v  1.1 0.8 0
v  2 0.8 0
v  1.1 1 0
v  2 1 0
v  1.1 1.2 0
v  2 1.2 0
v  1.1 1.4 0
v  2 1.4 0
v  1.1 1.6 0
v  2 1.6 0
v  2.2 1.8 0
v  2.2 1.6 0
v  2.2 1.4 0
v  2.2 1.2 0
v  2.2 1 0
v  2.2 0.8 0
v  2.2 0.6 0
v  2.2 0.4 0
v  2.2 0.2 0
v  2 0 0
v  2.2 0 0
v  1.1 0 0

# 32 UV coordinates
vt 7.4e-05 0.999926 0
vt 7.4e-05 0.899941 0
vt 0.450007 0.899941 0
vt 0.450007 0.999926 0
vt 7.4e-05 0.200044 0
vt 7.4e-05 0.100059 0
vt 0.450007 0.100059 0
vt 0.450007 0.200044 0
vt 7.4e-05 0.30003 0
vt 0.450007 0.30003 0
vt 7.4e-05 0.400015 0
vt 0.450007 0.400015 0
vt 7.4e-05 0.5 0
vt 0.450007 0.5 0
vt 7.4e-05 0.599985 0
vt 0.450007 0.599985 0
vt 7.4e-05 0.69997 0
vt 0.450007 0.69997 0
vt 7.4e-05 0.799955 0
vt 0.450007 0.799955 0
vt 0.549993 0.899941 0
vt 0.549993 0.799956 0
vt 0.549993 0.69997 0
vt 0.549993 0.599985 0
vt 0.549993 0.5 0
vt 0.549993 0.400015 0
vt 0.549993 0.30003 0
vt 0.549992 0.200044 0
vt 0.549993 0.100059 0
vt 0.450007 7.4e-05 0
vt 0.549993 7.4e-05 0
vt 7.4e-05 7.4e-05 0

# 1 vertex normals
vn 0 0 1

# Mesh 'low_Plane_low_Plane' with 30 faces
g low_Plane_low_Plane
usemtl DefaultMaterial
f  1/1/1 2/2/1 3/3/1
f  3/3/1 4/4/1 1/1/1
f  5/5/1 6/6/1 7/7/1
f  7/7/1 8/8/1 5/5/1
f  9/9/1 5/5/1 8/8/1
f  8/8/1 10/10/1 9/9/1
f  11/11/1 9/9/1 10/10/1
f  10/10/1 12/12/1 11/11/1
f  13/13/1 11/11/1 12/12/1
f  12/12/1 14/14/1 13/13/1
f  15/15/1 13/13/1 14/14/1
f  14/14/1 16/16/1 15/15/1
f  17/17/1 15/15/1 16/16/1
f  16/16/1 18/18/1 17/17/1
f  19/19/1 17/17/1 18/18/1
f  18/18/1 20/20/1 19/19/1
f  2/2/1 19/19/1 20/20/1
f  20/20/1 3/3/1 2/2/1
f  21/21/1 3/3/1 20/20/1
f  20/20/1 22/22/1 21/21/1
f  23/23/1 18/18/1 16/16/1
f  16/16/1 24/24/1 23/23/1
f  25/25/1 14/14/1 12/12/1
f  12/12/1 26/26/1 25/25/1
f  27/27/1 10/10/1 8/8/1
f  8/8/1 28/28/1 27/27/1
f  29/29/1 7/7/1 30/30/1
f  30/30/1 31/31/1 29/29/1
f  30/30/1 7/7/1 6/6/1
f  6/6/1 32/32/1 30/30/1

